<?xml version="1.0" standalone="no"?>
<!DOCTYPE svg PUBLIC "-//W3C//DTD SVG 1.1//EN" "http://www.w3.org/Graphics/SVG/1.1/DTD/svg11.dtd" >
<svg xmlns="http://www.w3.org/2000/svg">
<metadata>
This is a custom SVG webfont generated by Font Squirrel.
Copyright   : Copyright c 2008 by Tjarda Koster  Jelloween Font Foundry Some rights reserved This work is licensed under a Creative Commons AttributionNoncommercialNo Derivative Works 30 License  httpcreativecommonsorglicensesbyncnd30nldeeden
Designer    : Tjarda Koster
Foundry     : Tjarda Koster
Foundry URL : httpwwwmyfontscomfoundryjelloween
</metadata>
<defs>
<font id="VinegarRegular" horiz-adv-x="1189" >
<font-face units-per-em="2048" ascent="1536" descent="-512" />
<missing-glyph horiz-adv-x="700" />
<glyph unicode=" "  horiz-adv-x="700" />
<glyph unicode="&#x09;" horiz-adv-x="700" />
<glyph unicode="&#xa0;" horiz-adv-x="700" />
<glyph unicode="!" horiz-adv-x="788" d="M248 119q0 -61 44 -104.5t103 -43.5q61 0 104.5 43t43.5 105q0 59 -43 102t-105 43q-59 0 -103 -43t-44 -102zM285 1511h221l-70 -1044h-82z" />
<glyph unicode="&#x22;" horiz-adv-x="739" d="M147 1511h168l-32 -436h-103zM424 1511h168l-33 -436h-102z" />
<glyph unicode="#" d="M113 479v70h209l71 414h-280v69h293l90 508h69l-90 -508h354l91 508h69l-90 -508h178v-69h-188l-74 -414h262v-70h-274l-90 -508h-70l88 508h-352l-90 -508h-70l88 508h-194zM391 549h354l72 414h-352z" />
<glyph unicode="$" d="M125 135v352h70l47 -284q4 -12 15 -32.5t66.5 -60.5t137.5 -55v635q-156 63 -241 151.5t-85 250.5q0 154 92 262t244 143v109h53v-99q45 4 74 4q23 0 72 -4v99h51v-105q84 -18 151.5 -58t94.5 -71l24 -33v-282h-67l-47 211q-2 14 -9.5 35.5t-47.5 68.5t-99 70v-572 q76 -29 131 -60.5t107.5 -80.5t79 -121.5t26.5 -165.5q0 -170 -95.5 -281.5t-260.5 -146.5v-211h-54v203q-45 -6 -94 -6h-49v-197h-51v203q-207 23 -332 125zM260 1200q0 -92 54.5 -147.5t156.5 -96.5v488q-94 -31 -152.5 -96.5t-58.5 -147.5zM512 49q14 -2 49 -2q55 0 94 8 v563q-45 16 -143 54v-623zM524 936q20 -6 146 -47v565q-45 8 -74 8q-39 0 -72 -6v-520zM709 70q102 35 161.5 106.5t59.5 163.5q0 94 -57.5 152.5t-163.5 105.5v-528z" />
<glyph unicode="%" horiz-adv-x="1562" d="M74 1138.5q0 151.5 91 260t222 108.5t222 -108.5t91 -260t-91 -259t-222 -107.5t-222 107.5t-91 259zM209 -25l1071 1532h84l-1073 -1532h-82zM231 1135q0 -326 156 -326t156 326q0 330 -156 330t-156 -330zM862 342q0 152 92.5 260.5t221.5 108.5q131 0 222 -108.5 t91 -260.5t-91 -259.5t-222 -107.5q-129 0 -221.5 107.5t-92.5 259.5zM1022 340q0 -328 154 -328q156 0 155.5 328t-155.5 328q-154 0 -154 -328z" />
<glyph unicode="&#x26;" horiz-adv-x="1765" d="M74 399q0 98 34.5 174t105.5 130.5t139.5 88t170.5 70.5q-72 195 -71 352q0 154 124.5 240t327.5 86q182 0 275.5 -82t93.5 -201q0 -59 -24.5 -107t-57.5 -79t-96.5 -61.5t-109.5 -46t-128 -41.5q-23 -6 -33 -11q160 -385 381 -614q72 96 120 229t59.5 197.5t17.5 114.5 l-260 16v57l274 -6l297 6v-57l-215 -16q-63 -350 -252 -580q135 -121 236 -121q49 0 99 17.5t75 33.5l24 19l33 -21q-4 -8 -12 -22t-38 -52t-65.5 -66t-94 -51.5t-122.5 -23.5q-135 0 -303 129q-186 -129 -442 -129q-252 0 -407.5 116.5t-155.5 311.5zM369 489 q0 -186 108.5 -304.5t288.5 -118.5q147 0 270 71q-139 123 -265 303.5t-202 368.5q-200 -107 -200 -320zM711 1280q0 -133 71 -322q127 55 198 130t71 192q0 84 -42 142.5t-124 58.5q-80 0 -127 -52.5t-47 -148.5z" />
<glyph unicode="'" horiz-adv-x="352" d="M92 1511h168l-33 -436h-102z" />
<glyph unicode="(" horiz-adv-x="669" d="M63 569q0 571 340 846q123 98 234 125v-41q-8 -2 -20.5 -7t-50.5 -30.5t-71.5 -63.5t-75.5 -112t-72 -166t-50.5 -236.5t-20.5 -314.5t19.5 -314t51.5 -237.5t71 -166t78 -110.5t70.5 -62.5t51.5 -30.5l19 -8v-41q-12 2 -32.5 9t-80 37.5t-114 71.5t-121 120t-113.5 174 t-80 241.5t-33 316.5z" />
<glyph unicode=")" horiz-adv-x="669" d="M31 -360q8 2 20 7t50 30.5t73 63.5t76 111.5t71.5 166t51 236.5t20.5 314t-20.5 314.5t-52 237.5t-69.5 166t-77 111t-70.5 62.5t-52.5 30.5l-20 8v41q12 -2 32.5 -9t80 -38t113.5 -72t120.5 -119.5t114 -174t80 -242t32.5 -316.5q0 -571 -340 -845q-123 -98 -233 -125 v41z" />
<glyph unicode="*" horiz-adv-x="776" d="M74 1075l225 109l-225 108l63 109l207 -141l-20 251h127l-19 -251l207 141l63 -109l-227 -108l227 -109l-63 -110l-207 141l19 -250h-127l18 250l-205 -141z" />
<glyph unicode="+" d="M98 702v70h463v463h70v-463h463v-70h-463v-462h-70v462h-463z" />
<glyph unicode="," horiz-adv-x="700" d="M203 117q0 59 48 103t114 44q80 0 126 -51t46 -139q0 -80 -33 -155t-78 -123t-91 -84t-79 -52l-33 -16l-16 45q25 16 60.5 43.5t95 100.5t59.5 130q0 16 -7 18.5t-34 -4t-49 -6.5q-61 0 -95 41.5t-34 104.5z" />
<glyph unicode="-" horiz-adv-x="788" d="M182 424v184h424v-184h-424z" />
<glyph unicode="." horiz-adv-x="700" d="M203 119q0 59 43 102t104.5 43t103.5 -43t42 -102q0 -61 -42 -104.5t-103.5 -43.5t-104.5 43.5t-43 104.5z" />
<glyph unicode="/" horiz-adv-x="606" d="M82 -29l424 1569h74l-424 -1569h-74z" />
<glyph unicode="0" d="M74 741.5q0 317.5 152.5 541.5t369.5 224t368.5 -224t151.5 -541.5t-151.5 -542t-368.5 -224.5t-369.5 224.5t-152.5 542zM338 735q0 -156 11 -273.5t38 -218t80 -153.5t129 -53t128 53t79.5 153.5t39 218.5t11.5 273.5t-11.5 274t-39 219t-79.5 154t-128 53.5 t-129 -53.5t-80 -154t-38 -218t-11 -275.5z" />
<glyph unicode="1" d="M211 1114l250 191l164 178h112v-1413l254 -13v-57l-366 6l-392 -6v57l281 13v1192l-266 -195z" />
<glyph unicode="2" d="M86 2v68q43 53 189.5 237.5t197.5 247.5q162 211 215 332t53 239q0 145 -67.5 226.5t-194.5 81.5q-74 0 -129 -27t-76 -51l-18 -27l-47 -258h-70v295q4 6 13.5 15.5t42 34t71.5 43t106.5 33.5t143.5 15q242 0 365 -101t123 -294q0 -45 -9.5 -89t-19.5 -78t-40 -83 t-45.5 -73.5t-63.5 -82t-66.5 -79t-82 -91t-83.5 -92.5q-115 -125 -303 -315h639l65 266h56v-395l-467 6z" />
<glyph unicode="3" d="M102 115v291h70l45 -259q8 -12 24.5 -28.5t78 -45t137.5 -28.5q166 0 248.5 93t82.5 261q0 354 -292 355h-170v69h182q238 0 237 307q0 143 -67.5 224.5t-198.5 81.5q-141 0 -188 -82l-4 -6l-37 -222h-68v258l14 14q9 9 40.5 29.5t70.5 37t103.5 29.5t136.5 13 q217 0 339 -100t122 -260q0 -152 -88.5 -239t-239.5 -113q373 -57 373 -381q0 -186 -141.5 -312.5t-389.5 -126.5q-82 0 -155.5 14.5t-119.5 35t-81 41t-49 34.5z" />
<glyph unicode="4" d="M18 371v71l717 1041h111v-1041h209l12 133h55l-6 -167l6 -179h-55l-12 142h-209v-303l209 -11v-57l-322 6l-342 -6v57l232 11v303h-605zM102 442h521v752z" />
<glyph unicode="5" d="M117 115v291h67l45 -259q8 -12 25.5 -28.5t86.5 -45t151 -28.5q166 0 242.5 112.5t76.5 297.5q0 174 -84 290.5t-221 116.5q-63 0 -116.5 -21.5t-82 -48t-50 -63.5t-28 -53.5t-10.5 -32.5v-2h-69l61 842h72l325 -4l389 4v-129h-725l-43 -553q121 143 357 143 q225 0 357 -138t132 -345q0 -231 -157.5 -358.5t-397.5 -127.5q-244 0 -387 125z" />
<glyph unicode="6" d="M63 692q0 350 184.5 582.5t450.5 232.5q205 0 301 -110l11 -13v-258h-68l-37 222q-6 10 -18.5 24t-63.5 39t-114 25q-197 0 -290 -202t-93 -544q49 119 141 186.5t219 67.5q199 0 310.5 -129t111.5 -334q0 -213 -144.5 -359.5t-359.5 -146.5q-264 0 -402.5 189.5 t-138.5 527.5zM328 432q0 -174 67.5 -284.5t202.5 -110.5q127 0 185.5 113.5t58.5 300.5q0 379 -244 378q-123 0 -196.5 -112.5t-73.5 -284.5z" />
<glyph unicode="7" d="M147 1087v396l474 -4l491 4v-70l-551 -1413h-239l616 1354h-672l-63 -267h-56z" />
<glyph unicode="8" d="M63 354q0 244 318 379q-115 63 -179.5 151.5t-64.5 223.5q0 68 29 136.5t84 128t149.5 97t212.5 37.5q223 0 335 -100t112 -240q0 -127 -81 -202.5t-187 -112.5q147 -70 232 -169t85 -271q0 -170 -143.5 -303.5t-380.5 -133.5q-244 0 -382.5 105.5t-138.5 273.5zM283 354 q0 -145 94 -231t231 -86q135 0 225.5 70.5t90.5 207.5q0 53 -21.5 98.5t-50.5 76t-83 62.5t-95 49t-113 48t-108 47q-170 -119 -170 -342zM309 1206q0 -41 10.5 -73.5t37 -61.5t48 -48t69.5 -42t73.5 -34t87 -33.5t86.5 -32.5q150 111 149 276q0 129 -72.5 204t-219.5 75 q-106 0 -187.5 -58.5t-81.5 -171.5z" />
<glyph unicode="9" d="M63 1018q0 203 144.5 346t359.5 143q264 0 402.5 -190.5t138.5 -530.5q0 -350 -179 -580.5t-444 -230.5q-199 0 -307 107l-10 10v289h68l45 -234q2 -4 5 -11t19.5 -24.5t36.5 -30.5t59 -24.5t84 -11.5q184 0 272.5 202t88.5 546q-102 -223 -361 -224q-199 0 -310.5 124 t-111.5 325zM328 1049q0 -365 245 -365q123 0 196 102.5t73 262.5q0 174 -66.5 285.5t-202.5 111.5q-127 0 -186 -110.5t-59 -286.5z" />
<glyph unicode=":" horiz-adv-x="733" d="M211 119q0 59 44 102t103 43q61 0 104.5 -43t43.5 -102q0 -61 -43 -104.5t-105 -43.5q-59 0 -103 43.5t-44 104.5zM211 801q0 59 44 102t103 43q61 0 104.5 -43t43.5 -102q0 -61 -43 -104.5t-105 -43.5q-59 0 -103 43.5t-44 104.5z" />
<glyph unicode=";" horiz-adv-x="733" d="M211 117q0 59 48 103t116 44q78 0 124 -51t46 -139q0 -80 -33 -155t-78 -123t-91 -84t-79 -52l-33 -16l-16 45q8 6 23.5 16t52.5 43t65.5 63.5t52 72.5t23.5 79q0 16 -7 18.5t-33.5 -4t-51.5 -6.5q-61 0 -95 41.5t-34 104.5zM211 801q0 59 44 102t103 43q61 0 104.5 -43 t43.5 -102q0 -61 -43 -104.5t-105 -43.5q-59 0 -103 43.5t-44 104.5z" />
<glyph unicode="&#x3c;" d="M117 698v76l956 348v-75l-854 -310l854 -309v-76z" />
<glyph unicode="=" d="M98 555v70h996v-70h-996zM98 850v70h996v-70h-996z" />
<glyph unicode="&#x3e;" d="M119 352v76l852 309l-852 310v75l956 -348v-76z" />
<glyph unicode="?" horiz-adv-x="907" d="M98 1149v258q10 14 33 36.5t104.5 59.5t182.5 37q197 0 303 -91t106 -241q0 -92 -38.5 -167.5t-94 -131t-111 -112t-94 -141.5t-38.5 -189h-84q0 152 30.5 266.5t66.5 174t66.5 148.5t30.5 193q0 98 -45 165t-143 67q-129 0 -166 -97l-4 -14l-37 -221h-68zM264 119 q0 -61 42 -104.5t104 -43.5q59 0 103 43t44 105q0 59 -44 102t-103 43q-61 0 -103.5 -43t-42.5 -102z" />
<glyph unicode="@" horiz-adv-x="1970" d="M72 541q25 260 151.5 472t350 341t501.5 129q412 0 637 -233.5t195 -575.5q-27 -297 -190 -447.5t-363 -150.5q-63 0 -109.5 15t-68 38t-34 46.5t-12.5 37.5l-2 16q-41 -68 -124.5 -110.5t-190.5 -42.5q-156 0 -229.5 69.5t-61.5 186.5q8 88 75 152.5t169 95t197.5 44 t191.5 13.5l12 127q14 182 -186 182q-119 0 -174 -61l-59 -158h-74l18 199q14 10 41 24.5t113 38t176 23.5q186 0 278.5 -72t75.5 -268l-39 -439q-4 -51 13.5 -76.5t72.5 -25.5q129 0 210 138.5t106 404.5q14 170 -16.5 301t-93 212t-156 132t-191.5 70.5t-213 19.5 q-117 0 -221.5 -22.5t-210 -84t-185 -155.5t-137 -250t-75.5 -356q-16 -201 16.5 -355.5t100 -251t169 -157t208 -84t229.5 -23.5q317 0 540 160l35 29l25 -33q-8 -10 -22.5 -24.5t-69 -54.5t-119 -69.5t-171 -54t-225.5 -24.5q-293 0 -504.5 129t-307 342t-72.5 471z M764 342q-8 -86 33 -136t129 -50t141 63.5t66 167.5l18 193q-92 -2 -172 -22.5t-144.5 -76t-70.5 -139.5z" />
<glyph unicode="A" horiz-adv-x="1466" d="M-55 0v55l166 13l507 1443h201l516 -1443l160 -11v-57l-321 6l-320 -6v57l184 13l-153 432h-527l-153 -434l264 -13v-55l-322 6zM385 580h471l-238 663z" />
<glyph unicode="B" horiz-adv-x="1517" d="M84 0v57l182 13v1372l-182 12v57l322 -6l413 6q254 0 402.5 -101t148.5 -273q0 -109 -65.5 -184.5t-156.5 -110.5t-212 -49q98 -6 182 -29t158 -66t116 -116.5t42 -171.5q0 -188 -148.5 -299t-402.5 -111l-477 6zM543 57h221q180 0 265 82t85 271q0 117 -32.5 192.5 t-95 108t-120 43t-139.5 10.5h-184v-707zM543 819h121q82 0 138 9.5t118.5 38t95.5 97t33 173.5q0 170 -85 243.5t-266 73.5h-155v-635z" />
<glyph unicode="C" horiz-adv-x="1404" d="M74 755.5q0 331.5 216 558t560 226.5q266 0 450 -88l7 -2v-375h-68l-51 238q-2 6 -7 17t-30 41t-57.5 51.5t-93 40t-134.5 18.5q-236 0 -353.5 -202t-117.5 -523q0 -711 492 -711q262 0 401 238q33 55 47 100h51q-2 -8 -6 -23.5t-23.5 -57.5t-45 -81t-71.5 -87 t-101.5 -82t-138 -57.5t-179.5 -23.5q-330 0 -538.5 226.5t-208.5 558z" />
<glyph unicode="D" horiz-adv-x="1607" d="M84 0v57l182 13v1372l-182 12v57l322 -6l464 6q315 0 492.5 -197.5t177.5 -557.5q0 -231 -106.5 -407.5t-267 -262.5t-343.5 -86l-417 6zM543 57h213q465 0 465 699q0 358 -116 528t-304 170h-258v-1397z" />
<glyph unicode="E" horiz-adv-x="1415" d="M78 0v57l180 13v1372l-180 12v57l319 -6l838 6l41 -383h-49l-156 326h-534v-645h301l65 238h53l-6 -279l6 -279h-53l-65 240h-301v-672h579l158 351h49l-43 -408l-883 6z" />
<glyph unicode="F" horiz-adv-x="1304" d="M84 0v57l182 13v1372l-182 12v57l322 -6l813 6l41 -383h-50l-155 326h-512v-670h327l64 240h53l-4 -279l4 -278h-53l-64 240h-327v-637l205 -13v-57l-342 6z" />
<glyph unicode="G" horiz-adv-x="1568" d="M74 756v2q0 332 216 557t560 225q266 0 450 -88l7 -2v-375h-68l-51 238q-2 6 -7 17t-30 41t-57.5 51.5t-93 40t-134.5 18.5q-236 0 -353.5 -201t-117.5 -522v-4q0 -129 9.5 -229.5t37 -197t73.5 -160t123 -101t181 -37.5q197 0 295 170v395l-205 12v58l342 -7l299 7v-58 l-159 -12v-594h-56l-94 143q-162 -172 -428 -172q-328 0 -533.5 226.5t-205.5 558.5z" />
<glyph unicode="H" horiz-adv-x="1738" d="M86 0v57l180 13v1372l-180 12v57l322 -6l319 6v-57l-182 -12v-627h647v627l-180 12v57l319 -6l320 6v-57l-181 -12v-1372l181 -13v-57l-320 6l-319 -6v57l180 13v665h-647v-665l182 -13v-57l-319 6z" />
<glyph unicode="I" horiz-adv-x="788" d="M74 0v57l180 13v1372l-180 12v57l321 -6l320 6v-57l-183 -12v-1372l183 -13v-57l-320 6z" />
<glyph unicode="J" horiz-adv-x="958" d="M37 37v285h67l52 -240q2 -6 9 -15.5t43 -23.5t91 -14q45 0 74.5 5t48 22.5t29 33.5t12.5 54t2 67t-2 89t-2 106v1036l-180 12v57l319 -6l322 6v-57l-183 -12v-993q0 -203 -133 -340.5t-317 -137.5q-166 0 -252 66z" />
<glyph unicode="K" horiz-adv-x="1611" d="M86 0v57l180 13v1372l-180 12v57l322 -6l319 6v-57l-182 -12v-686l643 688l-246 12v55l320 -6l249 6v-55l-204 -12l-453 -486l692 -895l111 -6v-57l-320 6l-344 -6v57l197 13l-528 680l-117 -123v-557l182 -13v-57l-319 6z" />
<glyph unicode="L" horiz-adv-x="1302" d="M86 0v57l180 13v1372l-180 12v57l322 -6l319 6v-57l-182 -12v-1385h534l158 351h47l-41 -408l-835 6z" />
<glyph unicode="M" horiz-adv-x="1943" d="M55 0v55l207 13v1376l-207 12v55l250 -6l291 6l387 -1101l375 1101l182 -6l320 6v-57l-181 -12v-1372l181 -13v-57l-320 6l-319 -6v57l180 13v1294l-467 -1364h-103l-483 1376v-1308l232 -13v-55l-275 6z" />
<glyph unicode="N" horiz-adv-x="1619" d="M27 0v55l229 13v1376l-229 12v55l274 -6l236 6l770 -1101v1034l-230 12v55l275 -6l250 6v-55l-207 -12v-1444h-142l-909 1325v-1257l231 -13v-55l-274 6z" />
<glyph unicode="O" horiz-adv-x="1628" d="M74 755.5q0 325.5 217 555t522 229.5q307 0 524 -229.5t217 -555t-217 -555t-524 -229.5q-305 0 -522 229.5t-217 555zM395 756q0 -207 42 -367t138.5 -260t237.5 -100t238.5 100t139.5 260t42 367q0 209 -42 367.5t-139.5 258t-238.5 99.5q-209 0 -313.5 -201.5 t-104.5 -523.5z" />
<glyph unicode="P" horiz-adv-x="1460" d="M82 0v57l182 13v1372l-182 12v57l321 -6l478 6q528 0 528 -399q0 -207 -154.5 -304t-380.5 -97h-331v-641l202 -13v-57l-342 6zM543 768h184q362 0 363 344q0 176 -91.5 259t-236.5 83h-219v-686z" />
<glyph unicode="Q" horiz-adv-x="1628" d="M74 755.5q0 325.5 217 555t522 229.5q307 0 524 -229.5t217 -554.5q0 -207 -94 -373t-256 -270q35 -76 57.5 -116t61.5 -74t86 -34q33 0 65.5 15.5t49.5 29.5l16 17l35 -27q-4 -8 -10 -23.5t-33 -54.5t-58.5 -67.5t-86 -53t-115.5 -24.5q-127 0 -183.5 78t-84.5 219 q-86 -27 -191 -27q-305 0 -522 229.5t-217 555zM395 756q0 -430 170 -619q-16 53 -16 111q0 90 71.5 163.5t204.5 73.5q119 0 193 -69.5t133 -190.5q82 172 82 531q0 209 -42 367.5t-139.5 258t-238.5 99.5q-209 0 -313.5 -201.5t-104.5 -523.5zM612 211q0 -90 63.5 -133 t135.5 -47h10q104 0 170 37q-10 70 -16 102.5t-21.5 86.5t-34 79.5t-53.5 46t-80 20.5q-86 0 -130 -55t-44 -137z" />
<glyph unicode="R" horiz-adv-x="1574" d="M86 0v57l180 13v1374l-180 10v57l322 -6l421 6q553 0 553 -378q0 -324 -487 -357q111 -10 186.5 -64.5t110.5 -127t60.5 -156.5t40 -153.5t43 -115.5t75.5 -46q27 0 52.5 16t37.5 33l12 16l43 -18q-2 -8 -7 -20.5t-26.5 -45.5t-50 -57.5t-79 -45t-111.5 -20.5 q-98 0 -159.5 43t-86 112t-37.5 152l-24 165q-12 83 -37 152t-86 112t-162 43h-145v-680l182 -13v-57l-319 6zM545 807h172q344 0 344 326q0 166 -86 243.5t-225 77.5h-205v-647z" />
<glyph unicode="S" horiz-adv-x="1275" d="M137 156v405h70l49 -276q2 -10 7 -27.5t30.5 -61.5t62.5 -78t110 -61.5t165 -27.5q170 0 275.5 69.5t105.5 204.5q0 80 -37 137.5t-97.5 88t-138 59t-158.5 48t-159 57.5t-138.5 85t-97 130t-36.5 196q0 193 128 314.5t371 121.5q254 0 412 -86l6 -4v-375h-68l-51 238 q-2 6 -9 17t-32.5 41t-58.5 51.5t-91.5 40t-125.5 18.5q-145 0 -234.5 -70t-89.5 -172q0 -88 48 -147.5t124 -90t169 -55t185.5 -57.5t168 -82t124 -143.5t48.5 -227.5q0 -205 -141.5 -335t-411.5 -130q-96 0 -181.5 19.5t-137.5 46t-92 53.5t-56 45z" />
<glyph unicode="T" horiz-adv-x="1390" d="M27 1104l43 407l624 -6l627 6l41 -407h-49l-158 350h-319v-1384l204 -13v-57l-346 6l-342 -6v57l205 13v1384h-324l-155 -350h-51z" />
<glyph unicode="U" horiz-adv-x="1624" d="M37 1456v55l321 -6l342 6v-55l-204 -12v-938q0 -238 112.5 -357.5t323.5 -119.5q199 0 301 137t102 358v920l-229 12v55l272 -6l228 6v-55l-183 -10v-983q0 -221 -146.5 -356.5t-430.5 -135.5q-307 0 -468 120t-161 358v997z" />
<glyph unicode="V" horiz-adv-x="1452" d="M-35 1454v57l297 -6l344 6v-57l-211 -14l441 -1155l385 1159l-236 12v55l295 -6l227 6v-55l-194 -14l-477 -1442h-183l-557 1444z" />
<glyph unicode="W" horiz-adv-x="2097" d="M-10 1454v57l297 -6l321 6v-57l-188 -14l311 -1045l258 867l-55 182l-160 10v57l322 -6l319 6v-57l-188 -14l311 -1045l311 1047l-254 14v55l297 -6l252 6v-55l-200 -12l-431 -1444h-145l-332 1108l-329 -1108h-146l-434 1444z" />
<glyph unicode="X" horiz-adv-x="1519" d="M8 1454v57l346 -6l318 6v-57l-189 -14l320 -494l346 498l-264 12v55l321 -6l224 6v-55l-175 -12l-399 -578l520 -800l152 -9v-57l-344 6l-322 -6v57l178 13l-362 559l-387 -561l282 -13v-55l-344 6l-202 -6v55l155 13l443 641l-478 737z" />
<glyph unicode="Y" horiz-adv-x="1454" d="M-29 1454v57l322 -6l342 6v-57l-182 -12l399 -709l381 709l-270 14v55l319 -6l227 6v-55l-174 -12l-434 -807v-567l205 -13v-57l-342 6l-346 -6v57l205 13v503l-490 869z" />
<glyph unicode="Z" horiz-adv-x="1263" d="M37 0v72l864 1382h-610l-154 -326h-51l41 383l743 -6l357 6v-61l-877 -1393h672l156 351h47l-39 -408l-885 6z" />
<glyph unicode="[" horiz-adv-x="669" d="M158 -379v1890h442v-69h-229v-1749h229v-72h-442z" />
<glyph unicode="\" horiz-adv-x="606" d="M27 1540h73l424 -1569h-73z" />
<glyph unicode="]" horiz-adv-x="669" d="M68 -307h231v1749h-231v69h442v-1890h-442v72z" />
<glyph unicode="^" d="M172 938l381 545h84l383 -545h-86l-338 485l-338 -485h-86z" />
<glyph unicode="_" d="M98 -332h996v-69h-996v69z" />
<glyph unicode="`" horiz-adv-x="694" d="M74 1421h248l114 -381h-37z" />
<glyph unicode="a" horiz-adv-x="1101" d="M74 240q0 94 64.5 160.5t167 99t200.5 46t196 13.5v129q0 92 -56 139t-154 47q-121 0 -175 -61l-47 -164h-71v207q16 10 43.5 25.5t113.5 40t170 24.5q195 0 297.5 -74.5t102.5 -279.5v-500l161 -12v-57l-315 -23l-63 135q-37 -70 -120 -115t-192 -45q-158 0 -240.5 73 t-82.5 192zM322 254q0 -88 47 -141.5t137 -53.5q98 0 147 73t49 192v174q-98 -4 -177 -23.5t-141 -76t-62 -144.5z" />
<glyph unicode="b" horiz-adv-x="1169" d="M-10 1427v56l274 -4l113 4v-701q104 164 293 164q186 0 306 -137t120 -348q0 -205 -134.5 -345.5t-345 -140.5t-319.5 172l-102 -147h-41v1413zM377 309q0 -123 62.5 -193.5t162.5 -70.5q223 0 229 401q0 416 -215 416q-111 0 -174 -81t-65 -203v-269z" />
<glyph unicode="c" horiz-adv-x="1034" d="M74 461q0 207 148.5 346t393.5 139q90 0 172 -16.5t119 -32.5l37 -16v-232h-70l-49 164q-4 8 -15 20.5t-56 32t-103 19.5q-313 0 -313 -416q0 -410 297 -410q201 0 299 179h51l-11 -27.5t-39 -64t-73 -80t-116.5 -62.5t-167.5 -29q-238 0 -371 137.5t-133 348.5z" />
<glyph unicode="d" horiz-adv-x="1198" d="M76 461q0 205 120.5 345t313.5 140q176 0 285 -127v594l-162 14v56l274 -4l111 4v-1391l162 -12v-57l-361 -23l-22 139q-106 -164 -295 -164t-307.5 137.5t-118.5 348.5zM340 469q0 -410 215 -410q113 0 176.5 83t63.5 208v252q0 121 -62.5 190.5t-165.5 69.5 q-225 0 -227 -393z" />
<glyph unicode="e" horiz-adv-x="1073" d="M74 461q0 205 137 345t356 140q92 0 166 -25.5t117 -66.5t73.5 -91t43 -99.5t18.5 -90.5t6 -65l-2 -27h-651v-12q0 -410 297 -410q195 0 299 150l18 29h56q-4 -10 -13.5 -27.5t-45.5 -64t-80 -80t-121.5 -62.5t-169.5 -29q-227 0 -365.5 139.5t-138.5 346.5zM340 551h391 q1 14 1 29q0 29 -3 57q-4 43 -18.5 106.5t-53.5 102.5t-98 39q-196 0 -219 -334z" />
<glyph unicode="f" horiz-adv-x="704" d="M18 852v51l177 12v115q0 203 121.5 340t291.5 137q119 -2 160 -63v-232h-70l-45 164q-2 8 -9 19.5t-34.5 31t-66.5 19.5q-35 0 -58.5 -5t-38 -23.5t-21.5 -35t-9 -55.5t-2 -68.5t2 -93t2 -110.5v-133h258v-70h-258v-782l209 -13v-57l-322 6l-272 -6v57l162 13v782h-177z " />
<glyph unicode="g" horiz-adv-x="1114" d="M63 -186q0 135 181 176q-63 6 -106.5 53t-43.5 123q0 66 41 111t82 60t88 21q-195 84 -194 269q0 145 118.5 232t315.5 87q106 0 196 -28l365 4l18 -56l-241 -24q100 -84 100 -215q0 -147 -120 -234.5t-318 -87.5q-82 0 -158 17q-2 -2 -16.5 0t-38 -2.5t-45 -10.5 t-38 -23.5t-16.5 -39.5q0 -80 154 -80h404q268 0 268 -238q0 -330 -549 -329q-199 0 -323 52t-124 163zM262 -172q0 -174 318 -174q145 0 241.5 45t96.5 139q0 80 -57.5 106.5t-203.5 26.5h-266h-80q-49 -53 -49 -143zM354 627q0 -121 41 -189.5t149.5 -68.5t150.5 67.5 t42 190.5q0 121 -42 189.5t-150.5 68.5t-149.5 -68.5t-41 -189.5z" />
<glyph unicode="h" horiz-adv-x="1224" d="M18 1427v56l273 -4l112 4v-770q49 109 140.5 171t206.5 62q139 0 219 -83t80 -214v-579l139 -13v-57l-250 6l-227 -6v57l114 13v510q0 244 -184 243q-100 0 -166.5 -78.5t-71.5 -191.5v-483l140 -13v-57l-252 6l-228 -6v57l117 13v1345z" />
<glyph unicode="i" horiz-adv-x="624" d="M55 864v58l273 -7l112 7v-852l140 -13v-57l-252 6l-248 -6v57l137 13v782zM193 1337q0 57 39.5 97.5t95.5 40.5q57 0 97 -40t40 -98q0 -55 -40 -94t-97 -39q-55 0 -95 39t-40 94z" />
<glyph unicode="j" horiz-adv-x="649" d="M-102 -102h71l47 -166q2 -8 9.5 -20.5t34 -33t63.5 -20.5q35 0 58.5 6t37.5 23.5t21.5 35t9.5 57.5t2 69.5t-2 94t-2 111.5v797l-185 12v58l297 -9l111 9v-844q0 -203 -121 -341t-291 -138q-55 0 -96 16t-53 33l-12 18v232zM231 1337q0 57 40 97.5t96 40.5q57 0 96 -40 t39 -98q0 -55 -39 -94t-96 -39q-55 0 -95.5 39t-40.5 94z" />
<glyph unicode="k" d="M18 1427v56l273 -4l112 4v-1020l416 389l-184 12v58l225 -7l227 7v-58l-182 -12l-252 -236l426 -550l103 -9v-57l-252 6l-248 -6v57l115 11l-308 395l-86 -82v-311l140 -13v-57l-252 6l-248 -6v57l137 13v1345z" />
<glyph unicode="l" horiz-adv-x="620" d="M45 1427v56l274 -4l113 4v-1413l162 -13v-57l-275 6l-249 -6v57l139 13v1345z" />
<glyph unicode="m" horiz-adv-x="1771" d="M45 864v58l274 -7l113 7v-195q47 100 128 159.5t183 59.5q111 0 181.5 -63.5t87.5 -169.5q49 109 132 171t187 62q127 0 201 -83t74 -214v-579l137 -13v-57l-250 6l-203 -6v57l92 11v512q0 244 -159 243q-88 0 -145.5 -78.5t-59.5 -191.5v-483l137 -13v-57l-248 6 l-227 -6v57l115 13v510q0 244 -160 243q-88 0 -144.5 -78.5t-58.5 -191.5v-483l113 -13v-57l-226 6l-227 -6v57l117 13v782z" />
<glyph unicode="n" horiz-adv-x="1251" d="M45 866v56l274 -7l113 7v-209q51 109 140.5 171t205.5 62q139 0 219 -83t80 -214v-579l137 -13v-57l-247 6l-228 -6v57l115 13v510q0 244 -184 243q-100 0 -168 -78.5t-70 -191.5v-483l137 -13v-57l-250 6l-227 -6v57l117 13v784z" />
<glyph unicode="o" horiz-adv-x="1153" d="M74 461q0 201 147.5 343t356 142t355 -142t146.5 -343t-146.5 -343.5t-355 -142.5t-356 142.5t-147.5 343.5zM338 461q0 -129 17.5 -216t72.5 -147.5t150 -60.5q135 0 187 112.5t52 311.5q0 197 -52 310.5t-187.5 113.5t-187.5 -112.5t-52 -311.5z" />
<glyph unicode="p" horiz-adv-x="1198" d="M18 864v58l273 -9l112 9v-140q106 164 293 164t306.5 -137t119.5 -348q0 -205 -120.5 -345.5t-313.5 -140.5q-176 0 -285 125v-407l185 -15v-57l-297 6l-248 -6v57l137 15v1159zM403 317q0 -121 62.5 -190.5t165.5 -69.5q104 0 164.5 97.5t62.5 296.5q0 412 -215 411 q-111 0 -173 -80t-67 -202v-263z" />
<glyph unicode="q" horiz-adv-x="1150" d="M76 461q0 205 133 345t344 140q207 0 319 -174l103 150h43v-1229l137 -15v-57l-248 6l-299 -6v57l187 15v444q-106 -162 -293 -162q-188 0 -307 136.5t-119 349.5zM340 473q0 -416 215 -416q111 0 175.5 85t64.5 212v269q-4 117 -66.5 184t-161.5 67q-225 0 -227 -401z " />
<glyph unicode="r" horiz-adv-x="917" d="M45 864v58l274 -7l113 7v-177q41 92 109.5 146.5t154.5 54.5q61 0 109.5 -16.5t66.5 -32.5l17 -16v-230h-74l-49 164q-25 43 -100 43q-100 0 -166 -88t-68 -215v-485l113 -13v-57l-226 6l-227 -6v57l117 13v782z" />
<glyph unicode="s" horiz-adv-x="935" d="M111 70v231h71l49 -164q8 -10 24.5 -27.5t82 -45t147.5 -27.5q96 0 162 41t66 115q0 72 -61.5 107.5t-149.5 51t-177 37t-150.5 87t-61.5 177.5q0 129 93 211t281 82q190 -2 293 -72v-231h-71l-52 164q-4 8 -14 21.5t-58 35t-116 21.5q-98 0 -157.5 -38t-59.5 -102 q0 -68 62.5 -100.5t150.5 -47.5t176 -38.5t150.5 -94.5t62.5 -190q0 -152 -105.5 -225.5t-285.5 -73.5q-104 0 -192.5 24t-123.5 46z" />
<glyph unicode="t" horiz-adv-x="745" d="M18 850v53l162 12l148 324h67v-317h281v-72h-281v-619q-2 -133 113 -133q104 4 158 113h67q-47 -109 -132 -172.5t-195 -63.5q-131 0 -181.5 61.5t-50.5 182.5v631h-156z" />
<glyph unicode="u" horiz-adv-x="1179" d="M27 864v58l274 -7l78 7v-582q0 -242 174 -242q98 2 160.5 83t62.5 198v473l-139 12v58l252 -7l110 7v-830l138 -12v-57l-336 -23l-21 207q-51 -106 -137 -169t-197 -63q-291 0 -290 308v573z" />
<glyph unicode="v" horiz-adv-x="1036" d="M0 864v58l227 -7l248 7v-58l-135 -12l274 -616l236 614l-195 14v58l228 -7l180 7v-58l-150 -14l-327 -850h-113l-377 854z" />
<glyph unicode="w" horiz-adv-x="1501" d="M0 864v58l227 -7l273 7v-58l-148 -12l207 -590l160 467l-43 123l-115 12v58l225 -7l273 7v-58l-148 -12l207 -588l203 586l-168 14v58l203 -7l180 7v-58l-154 -14l-290 -850h-117l-225 639l-220 -639h-116l-297 852z" />
<glyph unicode="x" horiz-adv-x="1167" d="M45 864v58l227 -7l250 7v-58l-108 -10l213 -268l221 264l-195 14v58l226 -7l180 7v-58l-131 -12l-262 -313l374 -473l117 -9v-57l-272 6l-250 -6v57l119 11l-234 294l-246 -292l187 -13v-57l-228 6l-180 -6v57l144 13l284 342l-352 444z" />
<glyph unicode="y" horiz-adv-x="1036" d="M0 866v56l227 -7l248 7v-56l-135 -12l272 -612q29 68 86.5 207t102.5 247.5t65 155.5h-4l-207 14v56l228 -7l180 7v-56l-131 -12q-23 -55 -113 -269t-165.5 -393.5t-90.5 -211.5q-27 -59 -44 -95.5t-55 -97.5t-76 -96t-94 -63.5t-120 -28.5q-119 4 -149 67v232h69 l47 -166q18 -39 82 -39q86 0 150.5 82t134.5 235l-410 846z" />
<glyph unicode="z" horiz-adv-x="929" d="M74 0v70l516 782h-342l-78 -209h-55v279l428 -7l313 7v-70l-516 -782h389l78 209h55v-279l-426 6z" />
<glyph unicode="{" horiz-adv-x="669" d="M57 547v43q10 2 26.5 5t57.5 18.5t73 38t57.5 64.5t25.5 95q0 43 -24.5 154.5t-24.5 183.5q0 90 40 163.5t97 114.5t114.5 68t98.5 37l39 8v-43q-8 -2 -23.5 -5t-54.5 -20.5t-68.5 -41t-54 -68.5t-24.5 -100q0 -49 24.5 -157t24.5 -177q0 -203 -223 -326l-78 -35 q12 -4 32.5 -12t71.5 -39t91 -67.5t73 -101t33 -138.5q0 -68 -24.5 -176.5t-24.5 -157.5q0 -55 23.5 -100t56 -68.5t65.5 -39t57 -19.5l23 -6v-43q-16 2 -42 9t-93.5 35.5t-118.5 67.5t-93 113t-42 166q0 70 24.5 181.5t24.5 154.5q0 84 -60.5 139t-119.5 67z" />
<glyph unicode="|" horiz-adv-x="364" d="M147 -401v1941h70v-1941h-70z" />
<glyph unicode="}" horiz-adv-x="669" d="M31 -358q10 2 24.5 5t54.5 19.5t69.5 40t54 68.5t24.5 100q0 49 -24.5 157.5t-24.5 176.5q0 203 219 323l80 35q-12 4 -32.5 12.5t-72 39t-90.5 68.5t-71.5 102.5t-32.5 138.5q0 70 24.5 177t24.5 157q0 156 -172 219l-55 16v43q16 -2 41.5 -9t93 -36t119 -69 t93.5 -113.5t42 -163.5q0 -72 -23.5 -183.5t-23.5 -154.5q0 -84 60.5 -139.5t119.5 -69.5l59 -12v-43q-10 -2 -26.5 -5t-57.5 -18.5t-72.5 -38t-57 -64.5t-25.5 -95q0 -43 23.5 -155t23.5 -181q0 -92 -40 -166t-97.5 -114t-114.5 -67.5t-98 -35.5l-39 -8v43z" />
<glyph unicode="~" horiz-adv-x="1343" d="M74 442q2 12 5 35t23.5 78t50 97t92 77t142.5 35q96 0 305 -101.5t301 -101.5h2q147 0 213 162l15 41h47q-2 -12 -5 -34.5t-23.5 -78t-50.5 -97.5t-92.5 -77t-142.5 -35q-96 0 -305 100.5t-301 100.5q-80 0 -137 -50t-74 -101l-18 -50h-47z" />
<glyph unicode="&#xa1;" horiz-adv-x="788" d="M248 1020q0 61 43 104t104 43q59 0 103.5 -43t44.5 -104q0 -59 -44 -102.5t-104 -43.5q-61 0 -104 43.5t-43 102.5zM285 -373l69 1045h82l70 -1045h-221z" />
<glyph unicode="&#xa2;" d="M139 461q0 207 148.5 346t394.5 139q10 0 28.5 -1t26.5 -1l99 369h73l-100 -377q57 -8 107.5 -21.5t70.5 -23.5l23 -10v-232h-70l-47 164q-29 43 -100 61l-213 -792q47 -23 122 -23q201 0 299 179h50q-4 -10 -11.5 -27.5t-39 -64t-72.5 -80t-117 -62.5t-168 -29 q-49 0 -90 7l-102 -383h-74l106 397q-164 41 -254 168t-90 297zM403 469q0 -254 113 -350l205 766h-4q-314 0 -314 -416z" />
<glyph unicode="&#xa5;" d="M-84 1454v57l322 -6l342 6v-57l-191 -12l316 -697l299 697l-277 14v55l320 -6l227 6v-55l-176 -12l-340 -797v-41h377v-69h-377v-170h377v-70h-377v-227l205 -13v-57l-345 6l-344 -6v57l205 13v227h-377v70h377v170h-377v69h357l-379 836z" />
<glyph unicode="&#xa6;" horiz-adv-x="364" d="M147 -401v872h70v-872h-70zM147 668v872h70v-872h-70z" />
<glyph unicode="&#xa8;" horiz-adv-x="694" d="M37 1137q0 47 33.5 80.5t81 33.5t81 -33.5t33.5 -80.5t-33.5 -82t-81 -35t-81 35t-33.5 82zM428 1137q0 47 35 80.5t82 33.5t79.5 -33.5t32.5 -80.5t-32.5 -82t-79.5 -35q-45 0 -81 35t-36 82z" />
<glyph unicode="&#xa9;" horiz-adv-x="1718" d="M74 756q0 324 230.5 554t553.5 230q326 0 556.5 -230.5t230.5 -553.5q0 -326 -230.5 -555.5t-556.5 -229.5q-324 0 -554 229.5t-230 555.5zM154 756q0 -293 205.5 -500t498.5 -207t500 207t207 500t-207 499.5t-500 206.5q-291 0 -497.5 -206.5t-206.5 -499.5zM428 756 q0 201 130 336t335 135q76 0 144.5 -13.5t101.5 -27.5l30 -15v-223h-41l-32 142q-4 10 -14.5 27.5t-59.5 45t-119 27.5q-141 0 -211.5 -121t-70.5 -313q0 -428 294 -428q92 0 160 51t88 102l23 51h31q-2 -10 -8.5 -26.5t-32 -59.5t-59.5 -75.5t-98.5 -59t-141.5 -26.5 q-199 0 -324 136t-125 335z" />
<glyph unicode="&#xaa;" horiz-adv-x="1101" d="M74 240q0 94 64.5 160.5t167 99t200.5 46t196 13.5v129q0 92 -56 139t-154 47q-121 0 -175 -61l-47 -164h-71v207q16 10 43.5 25.5t113.5 40t170 24.5q195 0 297.5 -74.5t102.5 -279.5v-500l161 -12v-57l-315 -23l-63 135q-37 -70 -120 -115t-192 -45q-158 0 -240.5 73 t-82.5 192zM322 254q0 -88 47 -141.5t137 -53.5q98 0 147 73t49 192v174q-98 -4 -177 -23.5t-141 -76t-62 -144.5z" />
<glyph unicode="&#xad;" horiz-adv-x="788" d="M182 424v184h424v-184h-424z" />
<glyph unicode="&#xae;" horiz-adv-x="1718" d="M74 756q0 324 230.5 554t553.5 230q326 0 556.5 -230.5t230.5 -553.5q0 -326 -230.5 -555.5t-556.5 -229.5q-324 0 -554 229.5t-230 555.5zM154 756q0 -293 205.5 -500t498.5 -207t500 207t207 500t-207 499.5t-500 206.5q-291 0 -497.5 -206.5t-206.5 -499.5zM442 297 v33l109 10v823l-109 6v35l193 -4l254 4q332 0 332 -229q0 -193 -291 -213q94 -8 147 -72.5t65.5 -136.5t35 -131.5t61.5 -59.5q35 0 59 41l27 -10q-2 -4 -5 -12t-15.5 -27.5t-30 -35t-47 -27.5t-66.5 -12q-82 0 -121 48t-48 116l-18 138q-9 69 -48 116.5t-121 47.5h-86v-405 l108 -10v-33l-192 4zM719 782h102q207 0 207 193q0 98 -52 146t-136 48h-121v-387z" />
<glyph unicode="&#xb1;" d="M98 240v69h463v393h-463v70h463v463h70v-463h463v-70h-463v-393h463v-69h-996z" />
<glyph unicode="&#xb2;" d="M86 2v68q43 53 189.5 237.5t197.5 247.5q162 211 215 332t53 239q0 145 -67.5 226.5t-194.5 81.5q-74 0 -129 -27t-76 -51l-18 -27l-47 -258h-70v295q4 6 13.5 15.5t42 34t71.5 43t106.5 33.5t143.5 15q242 0 365 -101t123 -294q0 -45 -9.5 -89t-19.5 -78t-40 -83 t-45.5 -73.5t-63.5 -82t-66.5 -79t-82 -91t-83.5 -92.5q-115 -125 -303 -315h639l65 266h56v-395l-467 6z" />
<glyph unicode="&#xb3;" d="M102 115v291h70l45 -259q8 -12 24.5 -28.5t78 -45t137.5 -28.5q166 0 248.5 93t82.5 261q0 354 -292 355h-170v69h182q238 0 237 307q0 143 -67.5 224.5t-198.5 81.5q-141 0 -188 -82l-4 -6l-37 -222h-68v258l14 14q9 9 40.5 29.5t70.5 37t103.5 29.5t136.5 13 q217 0 339 -100t122 -260q0 -152 -88.5 -239t-239.5 -113q373 -57 373 -381q0 -186 -141.5 -312.5t-389.5 -126.5q-82 0 -155.5 14.5t-119.5 35t-81 41t-49 34.5z" />
<glyph unicode="&#xb4;" horiz-adv-x="694" d="M258 1040l117 381h246l-326 -381h-37z" />
<glyph unicode="&#xb5;" horiz-adv-x="2072" d="M102 -86q0 303 394 492q-33 188 -33 329q0 59 54 89t109.5 17.5t57.5 -59.5q-20 -18 -21 -64t10 -97.5t36 -135.5q82 25 151 41q-14 106 -19 179t-4 160t21.5 143.5t58 106.5t105.5 74.5t162 24.5q106 0 182 -57q78 154 297 154q82 0 140.5 -25.5t89 -61.5t49 -92.5 t22.5 -102.5t4 -107q2 -47 -49 -70t-102.5 -8.5t-51.5 61.5q0 23 6.5 80t6.5 96t-8.5 82t-40 66.5t-87.5 23.5q-61 0 -97 -28.5t-48 -75.5t-6 -123t20.5 -153.5t36.5 -184.5q10 -43 15 -65l264 8q35 0 52 -47t-2 -94.5t-75 -47.5q-84 12 -213 21q41 -231 41 -385 q0 -59 -60.5 -89t-120.5 -17.5t-63 59.5q0 125 -38 440q-158 0 -242 -8q45 -225 45 -385q0 -59 -60.5 -89t-121 -17.5t-62.5 59.5q0 90 -37 407q-104 -23 -141 -32q20 -74 33.5 -121t29 -121t20.5 -124t5 -114.5t-14.5 -106.5t-42 -88t-71.5 -72t-109.5 -43t-149.5 -17 q-98 0 -167.5 30.5t-101.5 82.5t-45.5 100.5t-13.5 101.5zM279 -68q0 -276 174 -276q61 0 96 26.5t47 69.5t6 111.5t-20.5 141.5t-36.5 169q-23 94 -33 143q-233 -133 -233 -385zM455 1053q0 111 131 110q68 0 100.5 -30.5t32.5 -79.5q0 -47 -33 -78t-100 -31 q-131 0 -131 109zM1012 1008.5q-8 -148.5 57 -367.5q10 -45 14 -68q137 18 250 31q-27 244 -14 369q-8 86 -41 135t-115 49q-143 0 -151 -148.5z" />
<glyph unicode="&#xb6;" horiz-adv-x="1038" d="M92 1090q0 186 118 304.5t341 116.5h395v-57h-80v-1855h-57v1855h-201v-1855h-57v1069q-223 0 -341 119t-118 303z" />
<glyph unicode="&#xb8;" horiz-adv-x="694" d="M193 -367l12 33q18 -4 37 -4q57 0 87.5 33t30.5 78q0 72 -77 71l-27 -2l111 181h59l-49 -80q4 0 13 -2t30.5 -13.5t38 -26t30 -42t13.5 -62.5q0 -72 -57.5 -126t-157.5 -54q-27 0 -50.5 4t-33.5 8z" />
<glyph unicode="&#xb9;" d="M211 1114l250 191l164 178h112v-1413l254 -13v-57l-366 6l-392 -6v57l281 13v1192l-266 -195z" />
<glyph unicode="&#xba;" horiz-adv-x="1153" d="M74 461q0 201 147.5 343t356 142t355 -142t146.5 -343t-146.5 -343.5t-355 -142.5t-356 142.5t-147.5 343.5zM338 461q0 -129 17.5 -216t72.5 -147.5t150 -60.5q135 0 187 112.5t52 311.5q0 197 -52 310.5t-187.5 113.5t-187.5 -112.5t-52 -311.5z" />
<glyph unicode="&#xbf;" horiz-adv-x="907" d="M80 -70q0 92 39 168t94 131.5t110.5 111.5t94.5 141t39 190h84q0 -152 -31 -266.5t-66.5 -174t-66.5 -148.5t-31 -194q0 -98 45 -164.5t144 -66.5q129 0 165 96l5 15l36 221h68v-258q-10 -14 -32.5 -37t-104.5 -59.5t-183 -36.5q-197 0 -303 90.5t-106 240.5zM350 1020 q0 61 44 104t104 43q61 0 103 -43t42 -104q0 -59 -42 -102.5t-103 -43.5q-59 0 -103.5 43.5t-44.5 102.5z" />
<glyph unicode="&#xc0;" horiz-adv-x="1466" d="M-55 0v55l166 13l507 1443h201l516 -1443l160 -11v-57l-321 6l-320 -6v57l184 13l-153 432h-527l-153 -434l264 -13v-55l-322 6zM385 580h471l-238 663zM496 2011h247l115 -381h-37z" />
<glyph unicode="&#xc1;" horiz-adv-x="1466" d="M-55 0v55l166 13l507 1443h201l516 -1443l160 -11v-57l-321 6l-320 -6v57l184 13l-153 432h-527l-153 -434l264 -13v-55l-322 6zM385 580h471l-238 663zM588 1630l117 381h245l-325 -381h-37z" />
<glyph unicode="&#xc2;" horiz-adv-x="1466" d="M-55 0v55l166 13l507 1443h201l516 -1443l160 -11v-57l-321 6l-320 -6v57l184 13l-153 432h-527l-153 -434l264 -13v-55l-322 6zM385 580h471l-238 663zM422 1640l211 367h203l208 -367h-32l-279 236l-278 -236h-33z" />
<glyph unicode="&#xc3;" horiz-adv-x="1466" d="M-55 0v55l166 13l507 1443h201l516 -1443l160 -11v-57l-321 6l-320 -6v57l184 13l-153 432h-527l-153 -434l264 -13v-55l-322 6zM379 1618q0 12 1 31.5t11 68.5t29.5 87t63.5 69t104 31q72 0 138.5 -39t122.5 -77t99 -38q41 0 66.5 38t32.5 77l6 39h34q0 -12 -1 -32 t-11 -70t-29.5 -88t-63.5 -69.5t-105 -31.5q-72 0 -140.5 39t-124 77.5t-94.5 38.5q-43 0 -68.5 -37.5t-29.5 -76.5l-4 -37h-37zM385 580h471l-238 663z" />
<glyph unicode="&#xc4;" horiz-adv-x="1466" d="M-55 0v55l166 13l507 1443h201l516 -1443l160 -11v-57l-321 6l-320 -6v57l184 13l-153 432h-527l-153 -434l264 -13v-55l-322 6zM385 580h471l-238 663zM422 1755q0 47 33.5 81t81 34t81 -34t33.5 -81t-33.5 -82t-81 -35t-81 35t-33.5 82zM813 1755q0 47 35 81t82 34 t79.5 -34t32.5 -81t-32.5 -82t-79.5 -35q-45 0 -81 35t-36 82z" />
<glyph unicode="&#xc5;" horiz-adv-x="1466" d="M-55 0v55l166 13l497 1415q-61 49 -61 129q0 70 48 118t117.5 48t119 -48.5t49.5 -117.5q0 -74 -56 -123l510 -1421l160 -11v-57l-321 6l-320 -6v57l184 13l-153 432h-527l-153 -434l264 -13v-55l-322 6zM385 580h471l-238 663zM616 1612q0 -41 28 -68.5t69 -27.5 t69.5 27.5t28.5 68.5t-28.5 68.5t-69.5 27.5t-69 -27.5t-28 -68.5z" />
<glyph unicode="&#xc6;" horiz-adv-x="1900" d="M-147 0v55l174 13l637 1374l-181 12v57l400 -6l837 6l39 -383h-47l-156 326h-534v-645h301l66 238h53l-6 -279l6 -279h-53l-66 240h-301v-672h580l157 351h49l-43 -408l-882 6l-322 -6v57l182 13v432h-440l-201 -434l275 -13v-55l-322 6zM340 580h403v862z" />
<glyph unicode="&#xc7;" horiz-adv-x="1404" d="M74 756q0 332 216 558t560 226q266 0 450 -88l7 -2v-375h-68l-51 238q-2 6 -7 17t-30 41t-57.5 51.5t-93 40t-134.5 18.5q-236 0 -353.5 -202t-117.5 -523q0 -711 492 -711q262 0 401 238q33 55 47 100h51q-4 -16 -13 -43t-49 -96.5t-95 -122.5t-157.5 -99.5 t-229.5 -48.5l-19 -30q4 0 13.5 -2t31 -13.5t38 -26t29.5 -42t13 -62.5q0 -72 -57 -126t-158 -54q-27 0 -50.5 4t-33.5 8l-10 4l12 33q18 -4 37 -4q57 0 88 33t31 78q0 72 -78 71l-27 -2l80 131q-315 14 -511.5 237.5t-196.5 545.5z" />
<glyph unicode="&#xc8;" horiz-adv-x="1415" d="M78 0v57l180 13v1372l-180 12v57l319 -6l838 6l41 -383h-49l-156 326h-534v-645h301l65 238h53l-6 -279l6 -279h-53l-65 240h-301v-672h579l158 351h49l-43 -408l-883 6zM469 2011h248l114 -381h-36z" />
<glyph unicode="&#xc9;" horiz-adv-x="1415" d="M78 0v57l180 13v1372l-180 12v57l319 -6l838 6l41 -383h-49l-156 326h-534v-645h301l65 238h53l-6 -279l6 -279h-53l-65 240h-301v-672h579l158 351h49l-43 -408l-883 6zM561 1630l117 381h246l-326 -381h-37z" />
<glyph unicode="&#xca;" horiz-adv-x="1415" d="M78 0v57l180 13v1372l-180 12v57l319 -6l838 6l41 -383h-49l-156 326h-534v-645h301l65 238h53l-6 -279l6 -279h-53l-65 240h-301v-672h579l158 351h49l-43 -408l-883 6zM395 1640l211 367h203l209 -367h-33l-278 236l-279 -236h-33z" />
<glyph unicode="&#xcb;" horiz-adv-x="1415" d="M78 0v57l180 13v1372l-180 12v57l319 -6l838 6l41 -383h-49l-156 326h-534v-645h301l65 238h53l-6 -279l6 -279h-53l-65 240h-301v-672h579l158 351h49l-43 -408l-883 6zM395 1755q0 47 34 81t81 34t81 -34t34 -81t-34 -82t-81 -35t-81 35t-34 82zM786 1755q0 47 35 81 t82 34t80 -34t33 -81t-33 -82t-80 -35t-82 35t-35 82z" />
<glyph unicode="&#xcc;" horiz-adv-x="788" d="M74 0v57l180 13v1372l-180 12v57l321 -6l320 6v-57l-183 -12v-1372l183 -13v-57l-320 6zM137 2011h248l115 -381h-37z" />
<glyph unicode="&#xcd;" horiz-adv-x="788" d="M74 0v57l180 13v1372l-180 12v57l321 -6l320 6v-57l-183 -12v-1372l183 -13v-57l-320 6zM287 1630l116 381h246l-325 -381h-37z" />
<glyph unicode="&#xce;" horiz-adv-x="788" d="M74 0v57l180 13v1372l-180 12v57l321 -6l320 6v-57l-183 -12v-1372l183 -13v-57l-320 6zM82 1640l211 367h203l209 -367h-33l-279 236l-278 -236h-33z" />
<glyph unicode="&#xcf;" horiz-adv-x="788" d="M74 0v57l180 13v1372l-180 12v57l321 -6l320 6v-57l-183 -12v-1372l183 -13v-57l-320 6zM82 1755q0 47 34 81t81 34t80.5 -34t33.5 -81t-33.5 -82t-80.5 -35t-81 35t-34 82zM473 1755q0 47 35 81t82 34t79.5 -34t32.5 -81t-32.5 -82t-79.5 -35q-45 0 -81 35t-36 82z" />
<glyph unicode="&#xd0;" horiz-adv-x="1607" d="M84 0v57l182 13v665h-182v80h182v627l-182 12v57l322 -6l464 6q315 0 492.5 -197.5t177.5 -557.5q0 -231 -106.5 -407.5t-267 -262.5t-343.5 -86l-417 6zM543 57h213q465 0 465 699q0 358 -116 528t-304 170h-258v-639h280v-80h-280v-678z" />
<glyph unicode="&#xd1;" horiz-adv-x="1619" d="M27 0v55l229 13v1376l-229 12v55l274 -6l236 6l770 -1101v1034l-230 12v55l275 -6l250 6v-55l-207 -12v-1444h-142l-909 1325v-1257l231 -13v-55l-274 6zM457 1618q0 12 1 31.5t11 68.5t29.5 87t63.5 69t104 31q72 0 138 -39t122.5 -77t99.5 -38q41 0 66.5 38t31.5 77 l6 39h35q0 -12 -1 -32t-11 -70t-29.5 -88t-63.5 -69.5t-106 -31.5q-72 0 -140.5 39t-123.5 77.5t-94 38.5q-43 0 -68.5 -37.5t-29.5 -76.5l-4 -37h-37z" />
<glyph unicode="&#xd2;" horiz-adv-x="1628" d="M74 755.5q0 325.5 217 555t522 229.5q307 0 524 -229.5t217 -555t-217 -555t-524 -229.5q-305 0 -522 229.5t-217 555zM395 756q0 -207 42 -367t138.5 -260t237.5 -100t238.5 100t139.5 260t42 367q0 209 -42 367.5t-139.5 258t-238.5 99.5q-209 0 -313.5 -201.5 t-104.5 -523.5zM541 2011h247l115 -381h-37z" />
<glyph unicode="&#xd3;" horiz-adv-x="1628" d="M74 755.5q0 325.5 217 555t522 229.5q307 0 524 -229.5t217 -555t-217 -555t-524 -229.5q-305 0 -522 229.5t-217 555zM395 756q0 -207 42 -367t138.5 -260t237.5 -100t238.5 100t139.5 260t42 367q0 209 -42 367.5t-139.5 258t-238.5 99.5q-209 0 -313.5 -201.5 t-104.5 -523.5zM725 1630l117 381h245l-325 -381h-37z" />
<glyph unicode="&#xd4;" horiz-adv-x="1628" d="M74 755.5q0 325.5 217 555t522 229.5q307 0 524 -229.5t217 -555t-217 -555t-524 -229.5q-305 0 -522 229.5t-217 555zM395 756q0 -207 42 -367t138.5 -260t237.5 -100t238.5 100t139.5 260t42 367q0 209 -42 367.5t-139.5 258t-238.5 99.5q-209 0 -313.5 -201.5 t-104.5 -523.5zM502 1640l211 367h202l209 -367h-32l-279 236l-278 -236h-33z" />
<glyph unicode="&#xd5;" horiz-adv-x="1628" d="M74 755.5q0 325.5 217 555t522 229.5q307 0 524 -229.5t217 -555t-217 -555t-524 -229.5q-305 0 -522 229.5t-217 555zM395 756q0 -207 42 -367t138.5 -260t237.5 -100t238.5 100t139.5 260t42 367q0 209 -42 367.5t-139.5 258t-238.5 99.5q-209 0 -313.5 -201.5 t-104.5 -523.5zM461 1618q0 12 1 31.5t11 68.5t29.5 87t63.5 69t104 31q72 0 138 -39t122.5 -77t99.5 -38q41 0 66.5 38t31.5 77l7 39h34q0 -12 -1 -32t-11 -70t-29.5 -88t-63.5 -69.5t-106 -31.5q-72 0 -140 39t-123.5 77.5t-94.5 38.5q-43 0 -68.5 -37.5t-29.5 -76.5 l-4 -37h-37z" />
<glyph unicode="&#xd6;" horiz-adv-x="1628" d="M74 755.5q0 325.5 217 555t522 229.5q307 0 524 -229.5t217 -555t-217 -555t-524 -229.5q-305 0 -522 229.5t-217 555zM395 756q0 -207 42 -367t138.5 -260t237.5 -100t238.5 100t139.5 260t42 367q0 209 -42 367.5t-139.5 258t-238.5 99.5q-209 0 -313.5 -201.5 t-104.5 -523.5zM504 1755q0 47 33.5 81t81 34t81 -34t33.5 -81t-33.5 -82t-81 -35t-81 35t-33.5 82zM895 1755q0 47 35 81t82 34t79.5 -34t32.5 -81t-32.5 -82t-79.5 -35q-45 0 -81 35t-36 82z" />
<glyph unicode="&#xd7;" d="M219 412l326 325l-326 326l49 51l328 -328l326 328l49 -51l-326 -326l326 -325l-49 -52l-326 328l-328 -328z" />
<glyph unicode="&#xd8;" horiz-adv-x="1628" d="M74 756q0 326 217 555t522 229q190 0 356 -96l72 123l59 -35l-73 -125q152 -109 239.5 -281t87.5 -370q0 -326 -217 -555.5t-524 -229.5q-193 0 -358 97l-70 -123l-61 35l73 126q-150 109 -236.5 280t-86.5 370zM395 756q0 -311 90 -498l615 1065q-109 158 -287 158 q-209 0 -313.5 -201.5t-104.5 -523.5zM524 188q111 -160 289 -159q141 0 238.5 100t139.5 260t42 367q0 311 -92 497z" />
<glyph unicode="&#xd9;" horiz-adv-x="1624" d="M37 1456v55l321 -6l342 6v-55l-204 -12v-938q0 -238 112.5 -357.5t323.5 -119.5q199 0 301 137t102 358v920l-229 12v55l272 -6l228 6v-55l-183 -10v-983q0 -221 -146.5 -356.5t-430.5 -135.5q-307 0 -468 120t-161 358v997zM631 2011h248l114 -381h-37z" />
<glyph unicode="&#xda;" horiz-adv-x="1624" d="M37 1456v55l321 -6l342 6v-55l-204 -12v-938q0 -238 112.5 -357.5t323.5 -119.5q199 0 301 137t102 358v920l-229 12v55l272 -6l228 6v-55l-183 -10v-983q0 -221 -146.5 -356.5t-430.5 -135.5q-307 0 -468 120t-161 358v997zM760 1630l117 381h245l-325 -381h-37z" />
<glyph unicode="&#xdb;" horiz-adv-x="1624" d="M37 1456v55l321 -6l342 6v-55l-204 -12v-938q0 -238 112.5 -357.5t323.5 -119.5q199 0 301 137t102 358v920l-229 12v55l272 -6l228 6v-55l-183 -10v-983q0 -221 -146.5 -356.5t-430.5 -135.5q-307 0 -468 120t-161 358v997zM573 1640l211 367h203l209 -367h-33l-278 236 l-279 -236h-33z" />
<glyph unicode="&#xdc;" horiz-adv-x="1624" d="M37 1456v55l321 -6l342 6v-55l-204 -12v-938q0 -238 112.5 -357.5t323.5 -119.5q199 0 301 137t102 358v920l-229 12v55l272 -6l228 6v-55l-183 -10v-983q0 -221 -146.5 -356.5t-430.5 -135.5q-307 0 -468 120t-161 358v997zM584 1755q0 47 33.5 81t80.5 34t81 -34 t34 -81t-34 -82t-81 -35t-80.5 35t-33.5 82zM975 1755q0 47 34.5 81t82 34t80 -34t32.5 -81t-32.5 -82t-80 -35t-82 35t-34.5 82z" />
<glyph unicode="&#xdd;" horiz-adv-x="1454" d="M-29 1454v57l322 -6l342 6v-57l-182 -12l399 -709l381 709l-270 14v55l319 -6l227 6v-55l-174 -12l-434 -807v-567l205 -13v-57l-342 6l-346 -6v57l205 13v503l-490 869zM711 1630l116 381h246l-325 -381h-37z" />
<glyph unicode="&#xde;" horiz-adv-x="1464" d="M82 0v57l182 13v1372l-182 12v57l321 -6l322 6v-57l-182 -12v-1372l182 -13v-57l-322 6zM403 1192l478 6q528 0 528 -399q0 -207 -154.5 -304.5t-380.5 -97.5h-387zM543 455h184q362 0 363 344q0 176 -91.5 259t-236.5 83h-219v-686z" />
<glyph unicode="&#xdf;" horiz-adv-x="1101" d="M18 0v57l138 13v1058q0 188 98 283.5t313 95.5q387 0 387 -315q0 -119 -69.5 -190.5t-173.5 -96.5q326 -68 325 -491q0 -186 -97 -312.5t-267 -126.5q-76 0 -130.5 26t-70.5 52l-16 25v186h69l45 -153q25 -66 84 -66q55 0 87 95.5t32 258.5q0 465 -201 465h-77v70h92 l-2 2q106 0 106 250q0 117 -40 183.5t-113 66.5q-90 0 -124 -56.5t-34 -179.5v-1200l-137 6z" />
<glyph unicode="&#xe0;" horiz-adv-x="1101" d="M74 240q0 94 64.5 160.5t167 99t200.5 46t196 13.5v129q0 92 -56 139t-154 47q-121 0 -175 -61l-47 -164h-71v207q16 10 43.5 25.5t113.5 40t170 24.5q195 0 297.5 -74.5t102.5 -279.5v-500l161 -12v-57l-315 -23l-63 135q-37 -70 -120 -115t-192 -45q-158 0 -240.5 73 t-82.5 192zM322 254q0 -88 47 -141.5t137 -53.5q98 0 147 73t49 192v174q-98 -4 -177 -23.5t-141 -76t-62 -144.5zM332 1421h248l114 -381h-37z" />
<glyph unicode="&#xe1;" horiz-adv-x="1101" d="M74 240q0 94 64.5 160.5t167 99t200.5 46t196 13.5v129q0 92 -56 139t-154 47q-121 0 -175 -61l-47 -164h-71v207q16 10 43.5 25.5t113.5 40t170 24.5q195 0 297.5 -74.5t102.5 -279.5v-500l161 -12v-57l-315 -23l-63 135q-37 -70 -120 -115t-192 -45q-158 0 -240.5 73 t-82.5 192zM322 254q0 -88 47 -141.5t137 -53.5q98 0 147 73t49 192v174q-98 -4 -177 -23.5t-141 -76t-62 -144.5zM461 1040l117 381h245l-325 -381h-37z" />
<glyph unicode="&#xe2;" horiz-adv-x="1101" d="M74 240q0 94 64.5 160.5t167 99t200.5 46t196 13.5v129q0 92 -56 139t-154 47q-121 0 -175 -61l-47 -164h-71v207q16 10 43.5 25.5t113.5 40t170 24.5q195 0 297.5 -74.5t102.5 -279.5v-500l161 -12v-57l-315 -23l-63 135q-37 -70 -120 -115t-192 -45q-158 0 -240.5 73 t-82.5 192zM240 1051l211 366h202l209 -366h-33l-278 235l-279 -235h-32zM322 254q0 -88 47 -141.5t137 -53.5q98 0 147 73t49 192v174q-98 -4 -177 -23.5t-141 -76t-62 -144.5z" />
<glyph unicode="&#xe3;" horiz-adv-x="1101" d="M74 240q0 94 64.5 160.5t167 99t200.5 46t196 13.5v129q0 92 -56 139t-154 47q-121 0 -175 -61l-47 -164h-71v207q16 10 43.5 25.5t113.5 40t170 24.5q195 0 297.5 -74.5t102.5 -279.5v-500l161 -12v-57l-315 -23l-63 135q-37 -70 -120 -115t-192 -45q-158 0 -240.5 73 t-82.5 192zM197 1028q0 12 1 31.5t11 69t29.5 87t63.5 68.5t104 31q72 0 138 -39t122.5 -77t99.5 -38q41 0 66.5 38t31.5 77l6 39h35q0 -12 -1 -31.5t-11 -70t-29.5 -88.5t-63.5 -69.5t-106 -31.5q-72 0 -140.5 39t-123.5 78t-94 39q-43 0 -68.5 -38t-29.5 -77l-5 -37h-36z M322 254q0 -88 47 -141.5t137 -53.5q98 0 147 73t49 192v174q-98 -4 -177 -23.5t-141 -76t-62 -144.5z" />
<glyph unicode="&#xe4;" horiz-adv-x="1101" d="M74 240q0 94 64.5 160.5t167 99t200.5 46t196 13.5v129q0 92 -56 139t-154 47q-121 0 -175 -61l-47 -164h-71v207q16 10 43.5 25.5t113.5 40t170 24.5q195 0 297.5 -74.5t102.5 -279.5v-500l161 -12v-57l-315 -23l-63 135q-37 -70 -120 -115t-192 -45q-158 0 -240.5 73 t-82.5 192zM240 1192q0 47 33.5 81t80.5 34t81 -34t34 -81t-34 -82t-81 -35t-80.5 35t-33.5 82zM322 254q0 -88 47 -141.5t137 -53.5q98 0 147 73t49 192v174q-98 -4 -177 -23.5t-141 -76t-62 -144.5zM631 1192q0 47 34.5 81t82 34t80 -34t32.5 -81t-32.5 -82t-80 -35 t-82 36t-34.5 81z" />
<glyph unicode="&#xe5;" horiz-adv-x="1101" d="M74 240q0 94 64.5 160.5t167 99t200.5 46t196 13.5v129q0 92 -56 139t-154 47q-121 0 -175 -61l-47 -164h-71v207q16 10 43.5 25.5t113.5 40t170 24.5q195 0 297.5 -74.5t102.5 -279.5v-500l161 -12v-57l-315 -23l-63 135q-37 -70 -120 -115t-192 -45q-158 0 -240.5 73 t-82.5 192zM322 254q0 -88 47 -141.5t137 -53.5q98 0 147 73t49 192v174q-98 -4 -177 -23.5t-141 -76t-62 -144.5zM383 1187.5q0 69.5 48 118t117.5 48.5t119 -48.5t49.5 -118t-49.5 -117.5t-119 -48t-117.5 48t-48 117.5zM453 1188q0 -41 27.5 -68.5t68.5 -27.5t69.5 27.5 t28.5 68.5t-28.5 68.5t-69.5 27.5t-68.5 -27.5t-27.5 -68.5z" />
<glyph unicode="&#xe6;" horiz-adv-x="1646" d="M74 240q0 88 56 152.5t149.5 97t184.5 48t191 19.5q18 82 47 133q-2 92 -58 138t-152 46q-121 0 -175 -61l-47 -164h-71v207q16 10 43.5 25.5t113.5 40t170 24.5q223 0 314 -92q131 92 301 92q92 0 165.5 -25.5t116.5 -66.5t74 -91t43 -99.5t18.5 -90.5t6.5 -65l-2 -27 h-652v-12q0 -410 297 -410q195 0 299 150l19 29h55q-4 -10 -13 -27.5t-45 -64t-80 -80t-122 -62.5t-170 -29q-141 0 -250.5 57.5t-175.5 157.5l-2 -4l4 -16q-29 -82 -118 -138.5t-212 -56.5q-158 0 -240.5 73t-82.5 192zM322 254q0 -88 47 -141.5t137 -53.5q158 0 188 183 q-47 100 -47 219v33q-139 -12 -232 -68.5t-93 -171.5zM924 645q0 -8 1 -25.5t1 -27.5v-41h379q2 43 -2.5 86t-18.5 106.5t-53 102.5t-98 39q-166 0 -209 -240z" />
<glyph unicode="&#xe7;" horiz-adv-x="1034" d="M74 461q0 207 148.5 346t393.5 139q90 0 172 -16.5t119 -32.5l37 -16v-232h-70l-49 164q-4 8 -15 20.5t-56 32t-103 19.5q-313 0 -313 -416q0 -410 297 -410q201 0 299 179h51q-4 -10 -10 -26.5t-37 -61t-69 -78t-109.5 -63t-155.5 -34.5l-20 -32q4 0 13 -2t30.5 -13.5 t38 -26t30 -42t13.5 -62.5q0 -72 -57.5 -126t-157.5 -54q-27 0 -50.5 4t-33.5 8l-11 4l13 33q18 -4 37 -4q57 0 87.5 33t30.5 78q0 72 -78 71l-26 -2l82 135q-225 10 -348 145.5t-123 338.5z" />
<glyph unicode="&#xe8;" horiz-adv-x="1073" d="M74 461q0 205 137 345t356 140q92 0 166 -25.5t117 -66.5t73.5 -91t43 -99.5t18.5 -90.5t6 -65l-2 -27h-651v-12q0 -410 297 -410q195 0 299 150l18 29h56q-4 -10 -13.5 -27.5t-45.5 -64t-80 -80t-121.5 -62.5t-169.5 -29q-227 0 -365.5 139.5t-138.5 346.5zM317 1421 h248l115 -381h-37zM340 551h391q2 43 -2 86t-18.5 106.5t-53.5 102.5t-98 39q-196 0 -219 -334z" />
<glyph unicode="&#xe9;" horiz-adv-x="1073" d="M74 461q0 205 137 345t356 140q92 0 166 -25.5t117 -66.5t73.5 -91t43 -99.5t18.5 -90.5t6 -65l-2 -27h-651v-12q0 -410 297 -410q195 0 299 150l18 29h56q-4 -10 -13.5 -27.5t-45.5 -64t-80 -80t-121.5 -62.5t-169.5 -29q-227 0 -365.5 139.5t-138.5 346.5zM340 551h391 q2 43 -2 86t-18.5 106.5t-53.5 102.5t-98 39q-196 0 -219 -334zM446 1040l117 381h246l-326 -381h-37z" />
<glyph unicode="&#xea;" horiz-adv-x="1073" d="M74 461q0 205 137 345t356 140q92 0 166 -25.5t117 -66.5t73.5 -91t43 -99.5t18.5 -90.5t6 -65l-2 -27h-651v-12q0 -410 297 -410q195 0 299 150l18 29h56q-4 -10 -13.5 -27.5t-45.5 -64t-80 -80t-121.5 -62.5t-169.5 -29q-227 0 -365.5 139.5t-138.5 346.5zM225 1051 l211 366h203l209 -366h-33l-278 235l-279 -235h-33zM340 551h391q2 43 -2 86t-18.5 106.5t-53.5 102.5t-98 39q-196 0 -219 -334z" />
<glyph unicode="&#xeb;" horiz-adv-x="1073" d="M74 461q0 205 137 345t356 140q92 0 166 -25.5t117 -66.5t73.5 -91t43 -99.5t18.5 -90.5t6 -65l-2 -27h-651v-12q0 -410 297 -410q195 0 299 150l18 29h56q-4 -10 -13.5 -27.5t-45.5 -64t-80 -80t-121.5 -62.5t-169.5 -29q-227 0 -365.5 139.5t-138.5 346.5zM244 1192 q0 47 33.5 81t81 34t81 -34t33.5 -81t-33.5 -82t-81 -35t-81 35t-33.5 82zM340 551h391q2 43 -2 86t-18.5 106.5t-53.5 102.5t-98 39q-196 0 -219 -334zM635 1192q0 47 35 81t82 34t79.5 -34t32.5 -81t-32.5 -82t-79.5 -35t-82 36t-35 81z" />
<glyph unicode="&#xec;" horiz-adv-x="624" d="M55 864v58l273 -7l112 7v-852l140 -13v-57l-252 6l-248 -6v57l137 13v782zM94 1421h248l115 -381h-37z" />
<glyph unicode="&#xed;" horiz-adv-x="624" d="M55 864v58l273 -7l112 7v-852l140 -13v-57l-252 6l-248 -6v57l137 13v782zM205 1040l117 381h245l-325 -381h-37z" />
<glyph unicode="&#xee;" horiz-adv-x="624" d="M2 1051l211 366h203l209 -366h-33l-279 235l-278 -235h-33zM55 864v58l273 -7l112 7v-852l140 -13v-57l-252 6l-248 -6v57l137 13v782z" />
<glyph unicode="&#xef;" horiz-adv-x="624" d="M2 1192q0 47 34 81t81 34t80.5 -34t33.5 -81t-33.5 -82t-80.5 -35t-81 35t-34 82zM55 864v58l273 -7l112 7v-852l140 -13v-57l-252 6l-248 -6v57l137 13v782zM393 1192q0 47 35 81t82 34t80 -34t33 -81t-33 -82t-80 -35t-82 36t-35 81z" />
<glyph unicode="&#xf0;" horiz-adv-x="1163" d="M74 461q0 201 147.5 343t356.5 142q86 0 180 -24q-51 150 -142 274l-270 -98l-24 67l251 90q-121 147 -260 228h242q113 -61 209 -158l287 105l24 -66l-256 -94q123 -139 197 -322.5t74 -378.5q0 -258 -139.5 -426t-372.5 -168q-209 0 -356.5 142.5t-147.5 343.5z M338 461q0 -129 17.5 -216t72.5 -147.5t150 -60.5q135 0 187 112.5t52 311.5q0 197 -52 310.5t-187.5 113.5t-187.5 -112.5t-52 -311.5z" />
<glyph unicode="&#xf1;" horiz-adv-x="1251" d="M45 866v56l274 -7l113 7v-209q51 109 140.5 171t205.5 62q139 0 219 -83t80 -214v-579l137 -13v-57l-247 6l-228 -6v57l115 13v510q0 244 -184 243q-100 0 -168 -78.5t-70 -191.5v-483l137 -13v-57l-250 6l-227 -6v57l117 13v784zM291 1028q0 12 1 31.5t11 69t29.5 87 t63.5 68.5t104 31q72 0 138.5 -39t122.5 -77t99 -38q41 0 66.5 38t31.5 77l7 39h34q0 -12 -1 -31.5t-11 -70t-29.5 -88.5t-63.5 -69.5t-106 -31.5q-72 0 -140 39t-123.5 78t-94.5 39q-43 0 -68.5 -38t-29.5 -77l-4 -37h-37z" />
<glyph unicode="&#xf2;" horiz-adv-x="1153" d="M74 461q0 201 147.5 343t356 142t355 -142t146.5 -343t-146.5 -343.5t-355 -142.5t-356 142.5t-147.5 343.5zM338 461q0 -129 17.5 -216t72.5 -147.5t150 -60.5q135 0 187 112.5t52 311.5q0 197 -52 310.5t-187.5 113.5t-187.5 -112.5t-52 -311.5zM358 1421h248l115 -381 h-37z" />
<glyph unicode="&#xf3;" horiz-adv-x="1153" d="M74 461q0 201 147.5 343t356 142t355 -142t146.5 -343t-146.5 -343.5t-355 -142.5t-356 142.5t-147.5 343.5zM338 461q0 -129 17.5 -216t72.5 -147.5t150 -60.5q135 0 187 112.5t52 311.5q0 197 -52 310.5t-187.5 113.5t-187.5 -112.5t-52 -311.5zM487 1040l117 381h246 l-326 -381h-37z" />
<glyph unicode="&#xf4;" horiz-adv-x="1153" d="M74 461q0 201 147.5 343t356 142t355 -142t146.5 -343t-146.5 -343.5t-355 -142.5t-356 142.5t-147.5 343.5zM266 1051l211 366h203l209 -366h-33l-278 235l-279 -235h-33zM338 461q0 -129 17.5 -216t72.5 -147.5t150 -60.5q135 0 187 112.5t52 311.5q0 197 -52 310.5 t-187.5 113.5t-187.5 -112.5t-52 -311.5z" />
<glyph unicode="&#xf5;" horiz-adv-x="1153" d="M74 461q0 201 147.5 343t356 142t355 -142t146.5 -343t-146.5 -343.5t-355 -142.5t-356 142.5t-147.5 343.5zM221 1028q0 12 1 31.5t11.5 69t30 87t63.5 68.5t103 31q72 0 138.5 -39t123 -77t99.5 -38q41 0 66.5 38t31.5 77l6 39h35q0 -12 -1 -31.5t-11.5 -70t-30 -88.5 t-63.5 -69.5t-105 -31.5q-72 0 -140.5 39t-124 78t-94.5 39q-43 0 -68.5 -38t-29.5 -77l-4 -37h-37zM338 461q0 -129 17.5 -216t72.5 -147.5t150 -60.5q135 0 187 112.5t52 311.5q0 197 -52 310.5t-187.5 113.5t-187.5 -112.5t-52 -311.5z" />
<glyph unicode="&#xf6;" horiz-adv-x="1153" d="M74 461q0 201 147.5 343t356 142t355 -142t146.5 -343t-146.5 -343.5t-355 -142.5t-356 142.5t-147.5 343.5zM266 1192q0 47 34 81t81 34t81 -34t34 -81t-34 -82t-81 -35t-81 35t-34 82zM338 461q0 -129 17.5 -216t72.5 -147.5t150 -60.5q135 0 187 112.5t52 311.5 q0 197 -52 310.5t-187.5 113.5t-187.5 -112.5t-52 -311.5zM657 1192q0 47 35 81t82 34t80 -34t33 -81t-33 -82t-80 -35q-45 0 -81 36t-36 81z" />
<glyph unicode="&#xf8;" horiz-adv-x="1153" d="M74 461q0 201 147.5 343t356.5 142q111 0 213 -49l75 129l62 -35l-74 -127q102 -66 163.5 -173t61.5 -230q0 -201 -146.5 -343.5t-354.5 -142.5q-111 0 -211 45l-80 -137l-60 35l76 135q-104 66 -166.5 173.5t-62.5 234.5zM338 461q0 -188 39 -283l362 631 q-59 76 -161 76q-135 0 -187.5 -112.5t-52.5 -311.5zM416 106q59 -70 162 -69q135 0 187 112.5t52 311.5q0 172 -37 274z" />
<glyph unicode="&#xf9;" horiz-adv-x="1179" d="M27 864v58l274 -7l78 7v-582q0 -242 174 -242q98 2 160.5 83t62.5 198v473l-139 12v58l252 -7l110 7v-830l138 -12v-57l-336 -23l-21 207q-51 -106 -137 -169t-197 -63q-291 0 -290 308v573zM371 1421h247l115 -381h-37z" />
<glyph unicode="&#xfa;" horiz-adv-x="1179" d="M27 864v58l274 -7l78 7v-582q0 -242 174 -242q98 2 160.5 83t62.5 198v473l-139 12v58l252 -7l110 7v-830l138 -12v-57l-336 -23l-21 207q-51 -106 -137 -169t-197 -63q-291 0 -290 308v573zM426 1040l117 381h245l-325 -381h-37z" />
<glyph unicode="&#xfb;" horiz-adv-x="1179" d="M27 864v58l274 -7l78 7v-582q0 -242 174 -242q98 2 160.5 83t62.5 198v473l-139 12v58l252 -7l110 7v-830l138 -12v-57l-336 -23l-21 207q-51 -106 -137 -169t-197 -63q-291 0 -290 308v573zM279 1051l210 366h203l209 -366h-33l-278 235l-279 -235h-32z" />
<glyph unicode="&#xfc;" horiz-adv-x="1179" d="M27 864v58l274 -7l78 7v-582q0 -242 174 -242q98 2 160.5 83t62.5 198v473l-139 12v58l252 -7l110 7v-830l138 -12v-57l-336 -23l-21 207q-51 -106 -137 -169t-197 -63q-291 0 -290 308v573zM279 1192q0 47 33.5 81t80.5 34t81 -34t34 -81t-34 -82t-81 -35t-80.5 35 t-33.5 82zM670 1192q0 47 34.5 81t82 34t80 -34t32.5 -81t-32.5 -82t-80.5 -35q-45 0 -80.5 36t-35.5 81z" />
<glyph unicode="&#xfd;" horiz-adv-x="1036" d="M0 866v56l227 -7l248 7v-56l-135 -12l272 -612q29 68 86.5 207t102.5 247.5t65 155.5h-4l-207 14v56l228 -7l180 7v-56l-131 -12q-23 -55 -113 -269t-165.5 -393.5t-90.5 -211.5q-27 -59 -44 -95.5t-55 -97.5t-76 -96t-94 -63.5t-120 -28.5q-119 4 -149 67v232h69 l47 -166q18 -39 82 -39q86 0 150.5 82t134.5 235l-410 846zM446 1040l117 381h246l-326 -381h-37z" />
<glyph unicode="&#xfe;" horiz-adv-x="1198" d="M18 1427v56l273 -6l112 6v-701q106 164 293 164t306.5 -137t119.5 -348q0 -205 -120.5 -345.5t-313.5 -140.5q-176 0 -285 125v-407l185 -15v-57l-297 6l-248 -6v57l137 15v1720zM403 317q0 -121 62.5 -190.5t165.5 -69.5q104 0 164.5 97.5t62.5 296.5q0 412 -215 411 q-111 0 -173 -80t-67 -202v-263z" />
<glyph unicode="&#xff;" horiz-adv-x="1036" d="M0 866v56l227 -7l248 7v-56l-135 -12l272 -612q29 68 86.5 207t102.5 247.5t65 155.5h-4l-207 14v56l228 -7l180 7v-56l-131 -12q-23 -55 -113 -269t-165.5 -393.5t-90.5 -211.5q-27 -59 -44 -95.5t-55 -97.5t-76 -96t-94 -63.5t-120 -28.5q-119 4 -149 67v232h69 l47 -166q18 -39 82 -39q86 0 150.5 82t134.5 235l-410 846zM262 1229q0 47 34 80.5t81 33.5t81 -33.5t34 -80.5t-34 -82t-81 -35t-81 35t-34 82zM653 1229q0 47 35 80.5t82 33.5t80 -33.5t33 -80.5t-33 -82t-80 -35q-45 0 -81 36t-36 81z" />
<glyph unicode="&#x152;" horiz-adv-x="2324" d="M74 755.5q0 325.5 217 555t522 229.5l494 -35l837 6l39 -383h-47l-156 326h-534v-645h301l65 238h54l-6 -279l6 -279h-54l-65 240h-301v-672h579l158 351h49l-43 -408l-882 6l-494 -35q-305 0 -522 229.5t-217 555zM395 756q0 -207 42 -367t138.5 -260t237.5 -100 q244 0 354 288v877q-111 287 -354 287q-209 0 -313.5 -201.5t-104.5 -523.5z" />
<glyph unicode="&#x153;" horiz-adv-x="1759" d="M74 461q0 201 147.5 343t356.5 142q188 0 335 -127q141 127 342 127q92 0 166 -25.5t117 -66.5t73.5 -91t43 -99.5t18.5 -90.5t6 -65l-2 -27h-653v-12q0 -410 299 -410q195 0 299 150l18 29h56q-4 -10 -13.5 -27.5t-45 -64t-80 -80t-123 -62.5t-170.5 -29 q-209 0 -351 125q-150 -125 -335 -125q-209 0 -356.5 142.5t-147.5 343.5zM338 461q0 -129 17.5 -216t72.5 -147.5t150 -60.5q178 0 223 225q-39 86 -39 199q0 109 39 198q-45 225 -223 226q-135 0 -187.5 -112.5t-52.5 -311.5zM1026 551h393q2 43 -2 86t-18.5 106.5 t-53 102.5t-100.5 39q-194 0 -219 -334z" />
<glyph unicode="&#x178;" horiz-adv-x="1454" d="M-29 1454v57l322 -6l342 6v-57l-182 -12l399 -709l381 709l-270 14v55l319 -6l227 6v-55l-174 -12l-434 -807v-567l205 -13v-57l-342 6l-346 -6v57l205 13v503l-490 869zM489 1726.5q0 47.5 34 81t81 33.5t81 -33.5t34 -81t-34 -82t-81 -34.5t-81 34.5t-34 82z M881 1726.5q0 47.5 34.5 81t81.5 33.5t80 -33.5t33 -81t-33 -82t-80 -34.5t-81.5 34.5t-34.5 82z" />
<glyph unicode="&#x2c6;" horiz-adv-x="694" d="M37 1051l211 366h203l208 -366h-32l-279 235l-278 -235h-33z" />
<glyph unicode="&#x2dc;" horiz-adv-x="694" d="M-8 1028q0 12 1 31.5t11 69t29.5 87t63.5 68.5t104 31q72 0 138.5 -39t122.5 -77t99 -38q41 0 66.5 38t31.5 77l7 39h34q0 -12 -1 -31.5t-11 -70t-29.5 -88.5t-63.5 -69.5t-106 -31.5q-72 0 -140 39t-123.5 78t-94.5 39q-43 0 -68.5 -38t-29.5 -77l-4 -37h-37z" />
<glyph unicode="&#x2000;" horiz-adv-x="1005" />
<glyph unicode="&#x2001;" horiz-adv-x="2011" />
<glyph unicode="&#x2002;" horiz-adv-x="1005" />
<glyph unicode="&#x2003;" horiz-adv-x="2011" />
<glyph unicode="&#x2004;" horiz-adv-x="669" />
<glyph unicode="&#x2005;" horiz-adv-x="501" />
<glyph unicode="&#x2006;" horiz-adv-x="333" />
<glyph unicode="&#x2007;" horiz-adv-x="333" />
<glyph unicode="&#x2008;" horiz-adv-x="249" />
<glyph unicode="&#x2009;" horiz-adv-x="401" />
<glyph unicode="&#x200a;" horiz-adv-x="110" />
<glyph unicode="&#x2010;" horiz-adv-x="788" d="M182 424v184h424v-184h-424z" />
<glyph unicode="&#x2011;" horiz-adv-x="788" d="M182 424v184h424v-184h-424z" />
<glyph unicode="&#x2012;" horiz-adv-x="788" d="M182 424v184h424v-184h-424z" />
<glyph unicode="&#x2013;" horiz-adv-x="1212" d="M182 424v184h848v-184h-848z" />
<glyph unicode="&#x2014;" horiz-adv-x="1636" d="M182 424v184h1272v-184h-1272z" />
<glyph unicode="&#x2018;" horiz-adv-x="788" d="M215 1112q0 80 33 154.5t79 122t91 83t78 52.5l32 16l17 -43q-25 -16 -60.5 -44t-95 -100.5t-59.5 -129.5q0 -16 7 -18.5t33.5 3.5t49.5 6q61 0 95 -40.5t34 -104.5q0 -61 -48 -104t-114 -43q-80 0 -126 50t-46 140z" />
<glyph unicode="&#x2019;" horiz-adv-x="788" d="M240 1393q0 61 48 104t113 43q80 0 126 -50t46 -138q0 -82 -32.5 -156t-78.5 -122t-91 -84t-78 -52l-33 -16l-16 45q25 16 60.5 43.5t95 100.5t59.5 130q0 10 -3 14.5t-10.5 3t-16.5 -3.5t-26.5 -5t-33.5 -3q-61 0 -95 41.5t-34 104.5z" />
<glyph unicode="&#x201a;" horiz-adv-x="788" d="M240 117q0 59 48 103t113 44q80 0 126 -51t46 -139q0 -80 -32.5 -155t-78.5 -123t-91 -84t-78 -52l-33 -16l-16 45q25 16 60.5 43.5t95 100.5t59.5 130q0 16 -7.5 18.5t-34 -4t-48.5 -6.5q-61 0 -95 41.5t-34 104.5z" />
<glyph unicode="&#x201c;" horiz-adv-x="1212" d="M215 1112q0 80 33 154.5t79 122t91 83t78 52.5l32 16l17 -43q-25 -16 -60.5 -44t-95 -100.5t-59.5 -129.5q0 -16 7 -18.5t33.5 3.5t49.5 6q61 0 95 -40.5t34 -104.5q0 -61 -48 -104t-114 -43q-80 0 -126 50t-46 140zM639 1112q0 80 33 154.5t78 122t91 83t79 52.5l32 16 l17 -43q-25 -16 -61 -44t-95 -100.5t-59 -129.5q0 -16 7 -18.5t33.5 3.5t49.5 6q61 0 95 -40.5t34 -104.5q0 -61 -48 -104t-114 -43q-80 0 -126 50t-46 140z" />
<glyph unicode="&#x201d;" horiz-adv-x="1212" d="M240 1393q0 61 48 104t113 43q80 0 126 -50t46 -138q0 -82 -32.5 -156t-78.5 -122t-91 -84t-78 -52l-33 -16l-16 45q25 16 60.5 43.5t95 100.5t59.5 130q0 10 -3 14.5t-10.5 3t-16.5 -3.5t-26.5 -5t-33.5 -3q-61 0 -95 41.5t-34 104.5zM664 1393q0 61 48 104t113 43 q80 0 126 -50t46 -138q0 -82 -32.5 -156t-78.5 -122t-91 -84t-78 -52l-33 -16l-16 45q25 16 60.5 43.5t95 100.5t59.5 130q0 10 -3 14.5t-10.5 3t-16.5 -3.5t-26.5 -5t-33.5 -3q-61 0 -95 41.5t-34 104.5z" />
<glyph unicode="&#x201e;" horiz-adv-x="1212" d="M240 117q0 59 48 103t113 44q80 0 126 -51t46 -139q0 -80 -32.5 -155t-78.5 -123t-91 -84t-78 -52l-33 -16l-16 45q25 16 60.5 43.5t95 100.5t59.5 130q0 16 -7.5 18.5t-34 -4t-48.5 -6.5q-61 0 -95 41.5t-34 104.5zM664 117q0 59 48 103t113 44q80 0 126 -51t46 -139 q0 -80 -32.5 -155t-78.5 -123t-91 -84t-78 -52l-33 -16l-16 45q25 16 60.5 43.5t95 100.5t59.5 130q0 16 -7.5 18.5t-34 -4t-48.5 -6.5q-61 0 -95 41.5t-34 104.5z" />
<glyph unicode="&#x2022;" horiz-adv-x="948" d="M221 655.5q0 106.5 74 180t180.5 73.5t179 -73.5t72.5 -180t-72.5 -180.5t-179 -74t-180.5 74t-74 180.5z" />
<glyph unicode="&#x2026;" horiz-adv-x="2101" d="M1604 119q0 59 43 102t104.5 43t103.5 -43t42 -102q0 -61 -42 -104.5t-103.5 -43.5t-104.5 43.5t-43 104.5zM903 119q0 59 43 102t104.5 43t103.5 -43t42 -102q0 -61 -42 -104.5t-103.5 -43.5t-104.5 43.5t-43 104.5zM203 119q0 59 43 102t104.5 43t103.5 -43t42 -102 q0 -61 -42 -104.5t-103.5 -43.5t-104.5 43.5t-43 104.5z" />
<glyph unicode="&#x202f;" horiz-adv-x="401" />
<glyph unicode="&#x2039;" d="M117 698v76l956 348v-75l-854 -310l854 -309v-76z" />
<glyph unicode="&#x203a;" d="M119 352v76l852 309l-852 310v75l956 -348v-76z" />
<glyph unicode="&#x205f;" horiz-adv-x="501" />
<glyph unicode="&#x20ac;" d="M-55 629l37 69h94q-2 18 -2 58q0 37 2 57h-131l37 70h100q37 274 210 451t429 177q92 0 174 -22.5t117 -44.5l37 -23v-377h-68l-51 238q-2 6 -5 17.5t-19.5 41t-37 51t-60.5 40t-89 18.5q-143 0 -224 -154.5t-98 -412.5h535l-37 -70h-500v-57v-58h500l-37 -69h-461 q27 -555 342 -555q195 0 301 239q27 55 37 101h51q-2 -16 -9 -44t-38.5 -99.5t-75.5 -126t-127 -99.5t-186 -45q-246 0 -410.5 176t-199.5 453h-137z" />
<glyph unicode="&#x2122;" horiz-adv-x="2078" d="M74 1288l24 223l375 -2l377 2l24 -223h-30l-94 189h-193v-748l123 -4v-35h-207h-207v35l125 4v748h-194l-95 -189h-28zM924 690v33l123 4v746l-123 6v32l151 -2l172 2l234 -600l223 600l111 -2l190 2v-34l-107 -7v-741l107 -4v-35h-190h-193v35l109 4v698l-281 -737h-59 l-293 746v-709l139 -4v-33h-162h-151z" />
<glyph unicode="&#xe000;" horiz-adv-x="920" d="M0 920h920v-920h-920v920z" />
<glyph unicode="&#xfb01;" horiz-adv-x="1329" d="M18 852v51l177 12v115q0 203 121.5 340t291.5 137q119 -2 160 -63v-232h-70l-45 164q-2 8 -9 19.5t-34.5 31t-66.5 19.5q-35 0 -58.5 -5t-38 -23.5t-21.5 -35t-9 -55.5t-2 -68.5t2 -93t2 -110.5v-133h342l272 -7l113 7v-852l137 -13v-57l-250 6l-250 -6v57l140 13v782 h-504v-782l209 -13v-57l-322 6l-272 -6v57l162 13v782h-177zM897 1337q0 -55 40 -94t95 -39q57 0 97 39t40 94q0 57 -39.5 97.5t-97.5 40.5q-55 0 -95 -40.5t-40 -97.5z" />
<glyph unicode="&#xfb02;" horiz-adv-x="1325" d="M18 852v51l177 12v115q0 203 121.5 340t291.5 137q72 0 115 -24l299 -4l113 4v-1413l163 -13v-57l-276 6l-248 -6v57l137 13v782h-493v-782l209 -13v-57l-322 6l-272 -6v57l162 13v782h-177zM414 1258.5q0 -29.5 2 -93t2 -110.5v-133h493v493l-143 8v-211h-70l-45 164 q-2 8 -9 19.5t-34.5 31t-66.5 19.5q-35 0 -58.5 -5t-38 -23.5t-21.5 -35t-9 -55.5t-2 -68.5z" />
<glyph unicode="&#xfb03;" horiz-adv-x="2033" d="M1464 864v58l273 -7l112 7v-852l140 -13v-57l-252 6l-248 -6v57l137 13v782zM1602 1337q0 57 39.5 97.5t95.5 40.5q57 0 97 -40t40 -98q0 -55 -40 -94t-97 -39q-55 0 -95 39t-40 94zM723 852v51l177 12v115q0 203 121.5 340t291.5 137q119 -2 160 -63v-232h-70l-45 164 q-2 8 -9 19.5t-34.5 31t-66.5 19.5q-35 0 -58.5 -5t-38 -23.5t-21.5 -35t-9 -55.5t-2 -68.5t2 -93t2 -110.5v-133h258v-70h-258v-782l209 -13v-57l-322 6l-272 -6v57l162 13v782h-177zM18 852v51l177 12v115q0 203 121.5 340t291.5 137q119 -2 160 -63v-232h-70l-45 164 q-2 8 -9 19.5t-34.5 31t-66.5 19.5q-35 0 -58.5 -5t-38 -23.5t-21.5 -35t-9 -55.5t-2 -68.5t2 -93t2 -110.5v-133h258v-70h-258v-782l209 -13v-57l-322 6l-272 -6v57l162 13v782h-177z" />
<glyph unicode="&#xfb04;" horiz-adv-x="2029" d="M1454 1427v56l274 -4l113 4v-1413l162 -13v-57l-275 6l-249 -6v57l139 13v1345zM723 852v51l177 12v115q0 203 121.5 340t291.5 137q119 -2 160 -63v-232h-70l-45 164q-2 8 -9 19.5t-34.5 31t-66.5 19.5q-35 0 -58.5 -5t-38 -23.5t-21.5 -35t-9 -55.5t-2 -68.5t2 -93 t2 -110.5v-133h258v-70h-258v-782l209 -13v-57l-322 6l-272 -6v57l162 13v782h-177zM18 852v51l177 12v115q0 203 121.5 340t291.5 137q119 -2 160 -63v-232h-70l-45 164q-2 8 -9 19.5t-34.5 31t-66.5 19.5q-35 0 -58.5 -5t-38 -23.5t-21.5 -35t-9 -55.5t-2 -68.5t2 -93 t2 -110.5v-133h258v-70h-258v-782l209 -13v-57l-322 6l-272 -6v57l162 13v782h-177z" />
<glyph horiz-adv-x="921" />
</font>
</defs>
</svg>
